<?xml version="1.0" standalone="no"?>
<!DOCTYPE svg PUBLIC "-//W3C//DTD SVG 1.1//EN" "http://www.w3.org/Graphics/SVG/1.1/DTD/svg11.dtd" >
<svg xmlns="http://www.w3.org/2000/svg" xmlns:xlink="http://www.w3.org/1999/xlink" version="1.1">
<metadata>
Created by FontForge 20161003 at Tue Jan  1 10:35:32 2019
 By www-data
</metadata>
<defs>
<font id="Fordscript" horiz-adv-x="0" >
  <font-face 
    font-family="Ford Script"
    font-weight="400"
    font-stretch="normal"
    units-per-em="1000"
    panose-1="0 0 0 0 0 0 0 0 0 0"
    ascent="800"
    descent="-200"
    x-height="363"
    cap-height="690"
    bbox="-206 -343 1009 722"
    underline-thickness="50"
    underline-position="-125"
    unicode-range="U+0020-2122"
  />
<missing-glyph horiz-adv-x="500" 
 />
    <glyph glyph-name=".notdef" horiz-adv-x="500" 
 />
    <glyph glyph-name=".null" 
 />
    <glyph glyph-name="nonmarkingreturn" horiz-adv-x="500" 
 />
    <glyph glyph-name="space" unicode=" " horiz-adv-x="306" 
 />
    <glyph glyph-name="space" unicode="&#xa0;" horiz-adv-x="306" 
 />
    <glyph glyph-name="exclam" unicode="!" horiz-adv-x="395" 
d="M46 3q21 6 38 23q41 39 41 79q0 22 -18 40q-17 14 -44 14q-26 -3 -52 -16q-53 -35 -53 -114q30 -33 57 -33q16 0 31 7zM121 204l4 4v4l12 21q24 45 74 89l8 8q2 2 8 9l22 17l51 42q8 4 30 26q93 76 115 139q13 25 13 66q-5 71 -93 71q-41 -8 -62 -27q-30 -25 -58 -74
q-13 -22 -25.5 -53t-23.5 -71l-23 -77l-38 -106q-1 -5 -3.5 -11.5t-6.5 -15.5q-8 -14 -9 -20l-15 -27h-1q-3 -11 -4 -11q4 -10 15 -10q3 0 4.5 1t5.5 6z" />
    <glyph glyph-name="quotedbl" unicode="&#x22;" horiz-adv-x="212" 
d="M95 375l119 180h-114l-100 -180h95zM248 375l119 180h-114l-99 -180h94z" />
    <glyph glyph-name="numbersign" unicode="#" horiz-adv-x="399" 
d="M92 170l-80 -168h28l79 168h90l-79 -168h27l80 168h90l13 28h-89l63 134h90l12 28h-89l79 168h-28l-79 -168h-90l79 168h-27l-80 -168h-90l-13 -28h90l-63 -134h-90l-13 -28h90zM134 198l61 134h90l-62 -134h-89z" />
    <glyph glyph-name="dollar" unicode="$" horiz-adv-x="475" 
d="M125 4q-38 4 -73 39q-33 38 -43 82q-5 23 -5 35q-1 5 -1 21q0 43 19 72q23 38 63 50q10 3 20 3q36 0 62 -25q28 -25 31 -65v-25q-1 -10 -16 -33q-5 -7 -10.5 -13.5t-11.5 -13.5v-7q14 0 36 31q24 32 27 67q-3 31 -22 54q-19 27 -46 40q-30 15 -59 15q-34 0 -57 -16
q-55 -34 -76 -78q-27 -50 -28 -75v-34q10 -115 141 -142q7 -1 20 -1.5t32 -0.5l-33 -64h33l30 64l44 2q9 0 43 8q6 2 16.5 5t20.5 7q63 25 89 64q26 38 26 98q-3 30 -27 111l-16 49l91 158l5 -12q7 -16 9 -32v-24q-2 -35 -31 -48q-26 -15 -47 -18q-3 -3 -3 -11q44 0 66 5
q37 14 53 39q13 19 13 53q0 19 -15 45q-17 20 -38 30l41 75h-34l-39 -67q-24 10 -50 10q-24 0 -62 -11q-59 -17 -84 -50q-21 -28 -21 -88q2 -22 10 -51t22 -66q13 -30 21 -43l-123 -221q-1 0 -2.5 1t-2.5 1q-3 1 -8 1zM415 503l-77 -138q-5 0 -8 20q-5 17 -5 29
q0 51 19 72.5t61 21.5q10 -3 10 -5zM296 120q0 -58 -59 -96q-11 -10 -36 -17q-13 -3 -22 -5.5t-11 -2.5l105 188q2 -3 12 -28q5 -11 7.5 -21t3.5 -18z" />
    <glyph glyph-name="percent" unicode="%" horiz-adv-x="575" 
d="M312 75q0 -37 21 -61t54 -24q36 0 68.5 23.5t56.5 55.5t38.5 64.5t14.5 51.5q0 28 -19.5 48.5t-54.5 20.5q-27 0 -58 -15t-58 -39.5t-45 -57t-18 -67.5zM284 367q6 1 16 3.5t20 5.5t19 7t15 9l-288 -397h82q74 125 130 214t103 160q24 35 39 58t22 33q13 20 13 30
q0 4 -3 7q-7 0 -38 -27q-32 -27 -60.5 -45.5t-54.5 -18.5q-23 0 -34.5 5.5t-11.5 11.5q2 10 2 14q0 22 -21 41t-51 19q-25 1 -57 -14t-60.5 -40.5t-47.5 -58t-17 -66.5q0 -35 23.5 -59.5t57.5 -24.5q21 -2 46.5 11.5t49.5 35t43.5 46.5t28.5 48l13 -2.5t21 -5.5zM183 471
q16 0 24 -6.5t8 -25.5q0 -3 -5 -9.5t-5 -12.5t3 -13q-18 -51 -55 -96q-38 -45 -72 -45q-8 0 -15 3q-12 7 -12 26q0 2 0.5 5t1.5 8q9 27 24 55t32 52t35.5 40.5t35.5 18.5zM491 227q15 0 23 -6t8 -26q1 -17 -11.5 -47.5t-32 -60t-42.5 -50.5t-44 -19q-8 0 -15 3q-15 6 -15 25
q0 6 3 17q10 28 25 56.5t31.5 51.5t34.5 38.5t35 17.5z" />
    <glyph glyph-name="ampersand" unicode="&#x26;" horiz-adv-x="525" 
d="M217 323q-184 -27 -242 -121q-25 -41 -25 -84q0 -36 20 -64q18 -30 54 -45q45 -19 134 -19q21 0 39.5 1.5t34.5 5.5q96 21 152 71q52 51 52 107q0 33 -14 56q13 0 25 1t24 3q81 15 81 58q0 21 -7 25q-13 0 -13 -3v-4q2 -2 2 -4q0 -19 -16 -26q-17 -9 -51 -9q-10 0 -14 2
l-32 3l-26 4q-7 1 -21 1h-33h-26q-9 0 -14 -1q-71 -12 -95 -36q-27 -23 -27 -51q0 -18 9 -22q5 -5 11 -5t6 6v5v4q0 24 11 33q12 12 41 18q2 0 3 0.5t4 0.5t4.5 0.5t3.5 0.5q45 0 69 -24q26 -26 26 -62q0 -20 -4 -32q-12 -39 -45 -66q-38 -27 -86 -33q-43 0 -52 4
q-82 19 -91 105q0 51 28 94q26 42 76 68q54 26 118 27h20l16 -1h1q4 0 7 3v4q0 12 -2 14h-1h-16q-12 0 -15 1q-57 13 -57 78q1 56 55 84q35 16 65 16q22 0 41 -10q31 -15 31 -48q0 -15 -12 -33q-15 -18 -36 -25q-5 -1 -8 -2t-4 -1l-7 -1h-9q-9 -1 -11 -3q-4 -1 -4 -7
q5 -5 16 -5h19h3l11 1l25 3q28 2 51 16q27 18 27 50q0 27 -19 47q-23 21 -52 29q-29 9 -89 9q-79 0 -128 -30q-63 -35 -63 -87q0 -33 27 -61q19 -21 50 -31q-4 0 -26 -3z" />
    <glyph glyph-name="quotesingle" unicode="'" horiz-adv-x="148" 
d="M95 375l119 180h-114l-100 -180h95z" />
    <glyph glyph-name="parenleft" unicode="(" horiz-adv-x="177" 
d="M15 -92q3 51 8 94t12 81q13 75 27 115q7 20 16 44.5t20 53.5q73 188 160 299q-1 4 -3.5 9t-9.5 5q-29 -20 -61.5 -50t-64 -68t-59 -83t-46.5 -94q-48 -120 -48 -233q0 -24 1.5 -45t5 -41.5t9 -42t12.5 -47.5q2 -1 7 -2t6 -1q8 0 8 6z" />
    <glyph glyph-name="parenright" unicode=")" horiz-adv-x="230" 
d="M140 611q-5 -79 -14.5 -141t-20.5 -104q-11 -43 -18 -65q-4 -11 -11 -30.5t-18 -46.5q-65 -177 -160 -300q0 -4 3 -9t10 -5q30 22 63 52.5t64 68t58 81.5t47 93q25 66 35.5 121.5t10.5 112.5q0 82 -26 174q-2 1 -6 2.5t-9 1.5q-7 0 -8 -6z" />
    <glyph glyph-name="asterisk" unicode="*" horiz-adv-x="285" 
d="M164 522l-34 7h-2q-5 0 -9 -3q-7 -7 -7 -21q0 -15 7 -19q8 -2 12 -2h2l31 9q10 3 20 4.5t21 2.5l-22 -25l-8 -9q-26 -26 -26 -35q0 -7 16 -16q12 -6 16 -6q6 0 11 9q5 12 13 35l1 5l12 35q6 -15 12 -36l11 -33q6 -15 17 -15q6 0 14 6q2 0 5 3q6 6 6 19q0 1 -1 2q0 2 -1 2
l-22 23q-13 14 -28 34l36 -4h6q15 -4 32 -4q11 0 13 5q4 4 4 18q-2 14 -15 17q-8 0 -32 -6l-6 -2l-39 -7l28 30l6 6q18 19 18 22q0 12 -2 14q-4 3 -11 8l-7 4l-5 2q-12 0 -16 -9l-1 -2l-7 -22q-7 -24 -18 -46l-7 24.5t-5 18.5l-6 27v1l-6 6q-6 3 -13 3q-9 0 -13 -4
q-12 -5 -12 -18q0 -2 0.5 -4l1.5 -6l3 -3l19 -20l12 -12q2 -2 5.5 -6l10.5 -12q-13 1 -23 2t-18 3z" />
    <glyph glyph-name="plus" unicode="+" horiz-adv-x="517" 
d="M194 279h-193v-70h193v-210h70v210h203l-1 70h-202v192h-70v-192z" />
    <glyph glyph-name="comma" unicode="," horiz-adv-x="155" 
d="M20 82q-5 -12 -5 -26q0 -16 14 -49q-7 -17 -18.5 -29t-31.5 -28t-27 -23t-7 -14q0 -5 4 -8q27 9 54 29t48.5 44t35 47t13.5 38q0 16 -9.5 30.5t-25.5 14.5q-17 0 -29 -8t-16 -18z" />
    <glyph glyph-name="hyphen" unicode="-" horiz-adv-x="371" 
d="M23 168h247l61 84h-253z" />
    <glyph glyph-name="hyphen" unicode="&#xad;" horiz-adv-x="371" 
d="M23 168h247l61 84h-253z" />
    <glyph glyph-name="period" unicode="." horiz-adv-x="155" 
d="M1 49q-2 -10 -2 -13q0 -36 36 -36q17 0 27.5 8t17.5 30q0 21 -9.5 34.5t-22.5 13.5t-27.5 -8t-19.5 -29z" />
    <glyph glyph-name="slash" unicode="/" horiz-adv-x="375" 
d="M-150 -60l57 1l581 761h-62z" />
    <glyph glyph-name="zero" unicode="0" horiz-adv-x="488" 
d="M-5 169q0 -35 11 -65.5t31 -53.5t47.5 -36.5t60.5 -13.5q78 0 155 73t130 168q53 97 53 144q0 58 -32.5 96.5t-101.5 38.5q-73 0 -156 -49q-83 -48 -141 -129q-57 -81 -57 -173zM354 484q61 0 61 -73q0 -18 -6.5 -43t-19 -54.5t-29.5 -62t-38 -65.5q-21 -32 -43.5 -59
t-45.5 -47t-47 -31.5t-46 -11.5q-15 0 -26 4q-11 3 -17 18t-6 35t6 37q19 58 49 121t65 115t72.5 85.5t70.5 31.5z" />
    <glyph glyph-name="one" unicode="1" horiz-adv-x="377" 
d="M311 423l13 12l15 10l-16 -18l-16 -20l-22 -25l-21 -24l-24 -25l-25 -28l-35 -37l-17 -19q-5 -5 -10.5 -11.5t-11.5 -14.5q-31 -37 -56 -74.5t-42 -70.5l-4 -10l-12 -26q-9 -18 -9 -42l145 -1q4 7 10.5 17.5t15.5 25.5q19 31 43.5 74.5t42.5 80.5q16 32 31.5 68.5
t31.5 76.5t27.5 70.5t19.5 51.5l16 32l5 10l1 3l4 7q-2 6 -10 6q-6 0 -7 -4l-6 -7v-2q-8 -3 -24 -22l-24 -22l-5 -3q-11 -11 -60 -45q-8 -3 -12 -6t-9 -6l-21 -14l-24 -13l-24 -13l-26 -11l-20 -11l-22 -10l-19 -8l-22 -10l-25 -10l-7 -2q-11 -5 -11 -13q1 -7 10 -7l17 2
q7 3 20.5 9t33.5 14t36.5 15.5t29.5 13.5q32 16 77 47q45 30 54 39z" />
    <glyph glyph-name="two" unicode="2" horiz-adv-x="428" 
d="M194 269q-5 -4 -8.5 -6t-4.5 -3q-5 -5 -8 -6t-5 -3l-21 -15l-33 -21l-19 -14l-17 -11q-5 -5 -8 -6q-4 -3 -9 -8q-40 -29 -70 -58q-17 -17 -45 -57q-5 -6 -7 -13l-3 -5l-11 -22l-3 -9l-1 -3q0 -2 2 -3.5t4 -3.5q1 -1 8 -1q0 2 2 4l2 3.5t5 4.5q8 10 36 14q32 0 49 -3
l23 -6l6 -2l46 -14l7 -2q27 -4 38.5 -6.5t18.5 -3.5q7 0 11 -1h11q8 0 11 -1h11q48 0 78 18q30 19 55 66l1 3l11 24q5 12 5 17q-3 5 -7 5q-7 -1 -12 -16q-10 -40 -61 -40q-30 0 -43 4q-13 2 -14 3l-12 3l-44 14q-50 18 -87 18q-1 0 -10 -1t-15 -1q-40 -5 -66 -28
q-3 -1 -14 -10q47 79 160 114l58 17l7 2q3 2 10.5 4.5l19.5 6.5q55 19 99 45q18 10 33 21t27 22q17 17 31 48q5 18 5 48q-1 31 -25 61q-24 25 -62 39q-22 7 -53 7q-25 0 -30 -1l-23 -3l-9 -1l-10.5 -1.5t-23.5 -6.5q-131 -44 -146 -127v-13q0 -5 1 -10q3 -41 27 -51
q9 -4 20 -4q17 0 45 17q13 10 22.5 21t9.5 18q-2 15 -10 15q-10 0 -22 -13q-24 -27 -45 -27q-9 0 -13 9t-4 37q4 30 23.5 49.5t51.5 36.5q47 28 118 28q17 -2 26 -12.5t9 -22.5q-3 -31 -11.5 -53.5t-22 -42t-32.5 -37t-44 -38.5z" />
    <glyph glyph-name="three" unicode="3" horiz-adv-x="458" 
d="M328 285q148 36 165 104q1 5 1.5 13.5t0.5 21.5q-2 30 -27 53t-71 35q-18 7 -52 7q-42 0 -66 -6q-32 -10 -53 -20t-35 -21.5t-21 -26t-10 -34.5v-20q6 -37 25 -46q7 -3 17 -3q25 0 46 18q6 4 12 11t11 14t8 12.5t3 7.5q-3 14 -11 14q-10 0 -31 -27q-6 -9 -17.5 -16
t-18.5 -7q-15 0 -15 29q3 27 18.5 45t42.5 32q12 12 69 23q48 0 51 -31q0 -21 -3 -25q-1 -6 -6 -18t-9 -25q-11 -24 -16 -30l-36 -41l-6.5 -6.5t-11.5 -9.5q-18 -11 -27 -13l-26 -10q-29 -9 -27 -9q-5 4 -15.5 10t-18.5 8q-33 0 -33 -24q3 -25 39 -25q8 3 16.5 7t14.5 7
q6 -2 17.5 -8t19.5 -12q14 -16 19 -45v-19q-1 -5 -1.5 -9.5t-0.5 -7.5q-1 -2 -2 -6.5t-2 -11.5q-11 -44 -49 -79q-2 -5 -6 -6q-1 -2 -3 -3t-3 -2q-44 -43 -99 -43q-23 0 -41 8q-5 3 -12.5 11t-11.5 12q44 0 44 31q0 12 -5.5 25.5t-5.5 17.5q-9 20 -54 20q-21 -1 -35 -18
q-10 -11 -10 -35q1 -17 6 -24q17 -38 71 -55q8 -4 18.5 -6.5t24.5 -3.5l33 -3q12 -1 20.5 -1.5t9.5 -0.5q33 0 94 16q79 19 124 58q39 34 39 83q-6 57 -42 87q-17 14 -38.5 23t-63.5 18q2 0 11 1.5t23 3.5q30 6 34 6z" />
    <glyph glyph-name="four" unicode="4" horiz-adv-x="468" 
d="M33 204q-31 -3 -47.5 -14t-16.5 -35q3 -13 17 -13q12 0 27 8.5t26 20.5q2 2 8 2q18 0 50 -13.5t65 -40.5q-10 -7 -34 -38t-54 -100q45 5 69.5 7.5t31.5 3.5t22 3.5t40 6.5q11 40 26 67t23 36q16 1 38 8t42 17t34 20t13 16q0 6 -7 6q-9 0 -49 -18q-41 -18 -59 -18
q8 15 18 33.5t20.5 37.5t21 36.5t19.5 31.5q9 15 17.5 29t18 31t20.5 38t25 49q-35 -25 -63.5 -47t-50.5 -41q-45 -37 -83 -82t-81 -108q-20 11 -34 19t-24 13t-23 9t-30 8q7 8 25 25.5t48 45.5q31 28 57 52t48 45q23 22 44.5 44.5t43.5 47.5q42 48 61 92h-157
q-43 -168 -206 -341z" />
    <glyph glyph-name="five" unicode="5" horiz-adv-x="414" 
d="M85 265l10 12q2 5 23 15q0 1 6 3q4 1 8 4q25 5 29 5q28 0 48 -21q21 -21 24 -58q0 -62 -16 -104q-10 -26 -21.5 -46t-25.5 -33q-38 -36 -96 -36q-13 1 -34 15q-11 7 -19 12t-13 9q50 2 50 47q0 12 -2.5 21t-3.5 10q-12 24 -43 24q-15 0 -31 -9q-9 -9 -11 -10
q-14 -20 -14 -42q1 -22 23 -50q21 -21 64 -36q34 -8 65 -8q14 0 30.5 1.5t33.5 3.5q43 7 91 35q83 59 105 118q8 27 8 71q-2 32 -19 63q-23 31 -49 44q-26 15 -63 19q-4 1 -23 1q-42 0 -100 -30q-3 -2 -8.5 -5.5t-10.5 -7t-10 -6.5t-6 -4l72 133l9 -3l10 -2q10 -4 17 -6.5
t12 -3.5q22 -5 37.5 -7.5t23.5 -3.5q17 -1 27.5 -2t12.5 -1q43 0 75 21q27 16 65 72q0 3 6 11q8 13 8 17q0 3 -4 3l-3 2h-3q-4 -3 -4 -4l-7 -5l-6 -5q-32 -23 -97 -23q-32 0 -80 15q-35 10 -51 18l-9 4l-10 5l-117 -233q-6 -1 -15.5 -6.5t-9.5 -19.5q3 -15 16 -15
q7 0 15 4.5t11 7.5z" />
    <glyph glyph-name="six" unicode="6" horiz-adv-x="486" 
d="M-4 167q0 -39 8 -71t27 -54.5t49 -34.5t74 -12q41 0 81.5 11.5t73.5 36t55.5 63t28.5 92.5q0 108 -89 125q-41 6 -50 6q-32 0 -94 -32q12 29 23.5 53t22.5 42q12 18 23 31.5t23 25t27 22.5t34 24q28 18 68 18q18 0 32.5 -2.5t20.5 -4.5q-22 -5 -34.5 -23t-12.5 -40
q0 -24 15.5 -42.5t41.5 -18.5q28 1 47.5 16t19.5 40q0 48 -39 77.5t-105 29.5q-60 0 -125 -34t-122 -91q-56 -56 -90 -123t-34 -130zM274 273q25 -10 25 -46q0 -39 -33 -91q-16 -26 -35 -46.5t-41 -36.5q-36 -27 -59 -27q-14 0 -23 9q-14 16 -14 50q0 44 21 91q25 49 52 78
t65 29q21 0 42 -10z" />
    <glyph glyph-name="seven" unicode="7" horiz-adv-x="375" 
d="M158 0l-1.5 4.5t-1.5 5.5q0 3 8 30l10 26l1 4q19 49 70 121l28 40l13 22l20 29l20 28l15 20l26 36l30 41l8 8l12 14l25 31l23 26l13 16l4 3q2 3 3 5l2 4q0 7 -2 9q-12 0 -14 -5l-8 -11l-3 -2q-11 -14 -40 -14q-5 0 -14.5 1t-23.5 3q-12 5 -15 5q-49 22 -83 24
q-40 0 -69 -10t-59 -35q-2 -1 -6.5 -5.5t-5.5 -6.5l21 43q3 8 4 9q-1 7 -8 7q-10 0 -14 -10q-1 -2 -4 -9t-8 -20q-22 -43 -36.5 -69t-22.5 -36q0 -6 -4 -7q-1 -1 -1.5 -2t-1.5 -2q0 -8 5 -10q9 0 18 12q0 1 2 3.5t3 4.5q21 27 37 34q19 10 52 10h10q10 -1 10 -3l37 -7l12 -1
q14 -2 24 -3t17 -1q50 0 110 36q9 9 13 12l-13 -14l-14 -16q-12 -13 -36.5 -34t-61.5 -51l-32 -28l-20 -15l-47 -36l-18 -15q-19 -19 -28 -24q-69 -63 -103.5 -112t-40.5 -96v-8v-9h154z" />
    <glyph glyph-name="eight" unicode="8" horiz-adv-x="409" 
d="M135 265q-68 -20 -93 -38q-35 -20 -51 -42q-16 -23 -16 -71q3 -37 29 -74q22 -30 61 -43q23 -4 41 -6t30 -2q14 0 28.5 1t30.5 3q72 10 117 55q35 41 35 106q-5 53 -47 113l-21 29l31 10q8 2 23.5 11t40.5 24q40 25 50 43q10 13 10 47q-2 27 -19 49q-16 21 -43 32
q-26 10 -77 10q-26 0 -55 -7q-60 -17 -87.5 -49t-27.5 -90q2 -28 16 -64q1 -2 2 -5.5t3 -7.5q0 -3 2 -6.5t3 -7.5q2 -4 3 -7t3 -7q-2 0 -3 -0.5t-6 -2.5q-10 -1 -13 -3zM239 109q0 -54 -22.5 -76t-71.5 -22q-51 6 -76.5 26.5t-28.5 58.5v13t1 11q2 56 29 85q4 7 12.5 12.5
t17.5 9.5t17 6.5t11 4.5q10 4 20.5 7.5t23.5 5.5q3 -5 11.5 -23t22.5 -43q26 -44 33 -76zM274 311q-1 2 -4.5 10t-10.5 22q-3 8 -6 16.5t-4 11.5q-5 10 -6 36q-1 5 -1 20q0 25 6 46q12 30 41 32q35 0 48 -10q17 -9 26 -33q5 -14 6 -26q0 -35 -14 -65q-23 -37 -60 -47l-24 -8
z" />
    <glyph glyph-name="nine" unicode="9" horiz-adv-x="452" 
d="M468 361q0 35 -7.5 65t-24.5 52t-46 34.5t-72 12.5q-85 0 -152 -47q-64 -46 -75 -146q0 -103 84 -119q40 -6 49 -6q33 0 89 30q-18 -43 -34.5 -72t-33.5 -50t-36 -36t-42 -30q-26 -18 -66 -18q-14 0 -28.5 2.5t-20.5 4.5q21 5 32.5 22t11.5 38q0 24 -14 40.5t-39 17.5
q-27 -1 -46 -15t-19 -38q0 -45 38 -73.5t99 -28.5q38 0 79 15t80.5 41.5t75 62t62 75.5t41.5 82.5t15 83.5zM205 261q-25 10 -25 43q0 38 30 86q29 47 74 80q35 26 56 26q12 0 22 -10q13 -13 13 -46q0 -45 -20 -87q-10 -20 -21.5 -38t-25 -32t-29.5 -22.5t-34 -8.5t-40 9z
" />
    <glyph glyph-name="colon" unicode=":" horiz-adv-x="178" 
d="M79 212q0 -49 35 -49q17 0 27 8t16 30q2 8 2 10q0 14 -10.5 26t-22.5 12q-13 0 -28 -8t-19 -29zM1 49q-2 -10 -2 -13q0 -36 36 -36q17 0 27.5 8t17.5 30q0 21 -9.5 34.5t-22.5 13.5t-27.5 -8t-19.5 -29z" />
    <glyph glyph-name="semicolon" unicode=";" horiz-adv-x="178" 
d="M79 212q0 -49 35 -49q17 0 27 8t16 30q2 8 2 10q0 14 -10.5 26t-22.5 12q-13 0 -28 -8t-19 -29zM20 82q-5 -12 -5 -26q0 -16 14 -49q-7 -17 -18.5 -29t-31.5 -28t-27 -23t-7 -14q0 -5 4 -8q27 9 54 29t48.5 44t35 47t13.5 38q0 16 -9.5 30.5t-25.5 14.5q-17 0 -29 -8
t-16 -18z" />
    <glyph glyph-name="semicolon" unicode="&#x37e;" horiz-adv-x="178" 
d="M79 212q0 -49 35 -49q17 0 27 8t16 30q2 8 2 10q0 14 -10.5 26t-22.5 12q-13 0 -28 -8t-19 -29zM20 82q-5 -12 -5 -26q0 -16 14 -49q-7 -17 -18.5 -29t-31.5 -28t-27 -23t-7 -14q0 -5 4 -8q27 9 54 29t48.5 44t35 47t13.5 38q0 16 -9.5 30.5t-25.5 14.5q-17 0 -29 -8
t-16 -18z" />
    <glyph glyph-name="less" unicode="&#x3c;" horiz-adv-x="303" 
d="M95 282l150 181h-114q-8 -10 -19 -23.5t-25 -32.5t-29 -38.5t-31 -41.5q-32 -44 -32 -46l141 -181h114q-8 10 -21.5 25.5t-31.5 37.5q-17 22 -34 42t-34 39q-32 38 -34 38z" />
    <glyph glyph-name="equal" unicode="=" horiz-adv-x="525" 
d="M70 289h393v71h-393v-71zM70 169h393v71h-393v-71z" />
    <glyph glyph-name="greater" unicode="&#x3e;" horiz-adv-x="303" 
d="M189 281l-150 -181h115q17 22 38 49.5t46 60.5q51 66 51 72l-141 181h-114q8 -10 21.5 -25.5t31.5 -37.5t35 -42t33 -39q32 -38 34 -38z" />
    <glyph glyph-name="question" unicode="?" horiz-adv-x="342" 
d="M59 508q0 -29 11.5 -45t44.5 -24q10 -2 11 -2q29 0 61 35.5t55 110.5q-6 0 -14 6t-10 6q-1 0 -3 -2q-7 -9 -22 -43q-15 -33 -31.5 -51t-43.5 -18q-26 6 -26 29q-2 17 13.5 41.5t39 46t51 36.5t49.5 14q19 0 31.5 -2t19.5 -8.5t9.5 -18.5t2.5 -31q0 -33 -28.5 -72
t-73.5 -81q-22 -21 -43 -40.5t-37.5 -35.5t-27 -29t-13.5 -20q-7 -18 -10 -29t-3 -25q0 -25 16 -41q16 -19 47 -19q26 0 51.5 21t40.5 66q-8 1 -14 1h-12t-7 -3q-7 -19 -25 -30t-34 -11q-22 0 -24 20q1 40 38 66q19 13 48 30t69 37q40 21 70.5 39.5t51 38t30.5 41t10 48.5
q0 37 -14.5 62.5t-35.5 41.5t-44.5 22.5t-41.5 6.5q-33 0 -72.5 -13t-74 -37t-59 -58t-27.5 -77zM12 28q22 -30 55 -30q12 0 29 7q21 7 31 24.5t10 38.5q0 15 -6 32q-18 45 -83 45q-22 -4 -35.5 -26t-13.5 -49q0 -26 13 -42z" />
    <glyph glyph-name="at" unicode="@" horiz-adv-x="625" 
d="M37 247q-2 -59 24 -100.5t66.5 -68t88 -38.5t88.5 -12q52 0 90 8.5t65 20.5q14 7 24.5 12.5t17.5 10.5t18 13.5t25 19.5q0 15 -10 15q1 0 -7 -2q-122 -70 -194 -70q-41 0 -85 13t-80 38.5t-59.5 63t-23.5 85.5q0 47 23.5 95t62.5 86.5t88.5 62t100.5 22.5q31 0 66 -12.5
t65 -36t50 -56.5t20 -75q0 -26 -11 -57.5t-31 -58.5t-48.5 -44.5t-62.5 -15.5q13 48 24 81q11 34 26 77t36 103l-61 2l-10 -24q-3 2 -7.5 5.5t-11.5 8.5q-12 11 -21 14.5t-32 3.5q-38 1 -71 -19.5t-57.5 -52.5t-38.5 -71.5t-13 -75.5q0 -18 4 -35.5t14 -30.5t26.5 -21
t40.5 -8q12 0 20.5 1.5t18 5.5t20.5 11.5t27 19.5q10 -25 23 -36t34 -11q35 -2 69.5 17t61 50.5t43 73.5t15.5 87q1 52 -21 91.5t-56.5 66t-77 39.5t-82.5 13q-60 0 -106.5 -16t-81.5 -42.5t-59 -59.5t-39 -67.5t-21.5 -65.5t-6.5 -54zM363 395q32 -13 32 -40
q0 -25 -12.5 -59t-31 -64.5t-39.5 -51.5t-37 -19q-23 0 -30.5 14t-7.5 43q2 10 6 25t11 35q13 40 38 80t56 40q7 0 15 -3z" />
    <glyph glyph-name="A" unicode="A" horiz-adv-x="724" 
d="M606 98q-25 -14 -54 -14l319 591q-13 4 -33 4q-49 0 -104 -30t-109 -76q-52 -46 -105 -100.5t-116 -117.5q-26 28 -42 40t-42 14q-36 0 -61 -12t-40.5 -31.5t-22.5 -43t-7 -45.5q0 -16 3 -26q4 -14 6 -24t4 -15q7 -17 30 -47q-8 -8 -20.5 -19.5t-29.5 -27.5t-38.5 -31
t-47.5 -31q-49 -31 -91 -31q-21 1 -41 6.5t-35.5 12.5t-25 15.5t-9.5 17.5l2 6q49 0 77.5 17.5t28.5 52.5q-3 39 -20.5 56t-51.5 17q-80 -3 -80 -108q0 -27 13.5 -48.5t35.5 -37.5t49 -24.5t54 -8.5q52 0 96 21q23 11 42 23t35 26q31 27 78 72q30 -30 53 -47t38.5 -26.5
t23 -13t7.5 -5.5q0 -1 -4 -14.5t-8 -35.5h150q13 18 17.5 30.5t4.5 17.5q21 3 38 6t35 12t39 26t49 48q-2 0 -7.5 10t-9.5 10q-9 -10 -29.5 -28.5t-43.5 -32.5zM389 79q-17 9 -30.5 16.5t-25.5 16.5t-25 21.5t-29 30.5q87 87 116 128q9 -12 14.5 -37t5.5 -55q0 -66 -26 -121
zM754 618q-12 -13 -27 -31.5t-34 -43.5q-18 -25 -36 -51l-36 -52q-17 -26 -39.5 -59t-48.5 -73t-45.5 -70.5t-33.5 -52.5q0 11 1 25t1 20q0 18 -6 44t-12.5 39t-9.5 15q0 5 60 70q60 66 133 130t133 90zM261 191q-17 42 -17 76q0 39 20.5 59.5t49.5 20.5q33 0 67 -25
q-30 -32 -75 -81q-45 -48 -45 -50z" />
    <glyph glyph-name="B" unicode="B" horiz-adv-x="883" 
d="M612 365q0 -31 28 -31q12 0 25.5 4t19.5 7q11 -12 18 -17.5t10.5 -13t5 -21.5t1.5 -43t-27 -81q-26 -54 -66 -94t-81 -40q-25 4 -25 50q0 18 6 32t16 26q5 7 13 15t18 19t17.5 19.5t12.5 15.5q-23 -5 -42.5 -17.5t-33.5 -30.5t-22 -40t-8 -46q0 -35 20.5 -57t60.5 -22
q40 -1 74.5 11t62.5 31t49.5 43t36 47t22 42.5t7.5 30.5q-1 27 -4.5 47.5t-8.5 34.5q-10 28 -23 39q-6 5 -18.5 14.5t-32.5 23.5q32 12 60 28.5t48.5 38t32.5 47.5t12 58q0 60 -33 92q-34 32 -56 41q0 4 7 8t15 8t15 8t7 8q0 -1 -2 5q-8 3 -16 3q-29 0 -73 -26q-12 1 -29 2
t-40 3q-45 3 -72 3q-138 0 -236.5 -35t-155.5 -84t-83.5 -92t-26.5 -61q0 -118 129 -118q51 1 85.5 13.5t58.5 34.5t40.5 54t31.5 73q7 24 7 56q0 24 -2.5 45.5t-4.5 30.5q-5 -8 -14 -25.5t-23 -46.5q-14 -28 -27.5 -52.5t-27.5 -45.5q-27 -42 -66 -73t-90 -31
q-25 0 -42.5 19.5t-17.5 50.5q4 66 64 121q59 53 148 88q87 34 172 43q6 1 16 1.5t24 0.5q39 0 73 -4t50 -6q-37 -26 -72.5 -57.5t-76.5 -78.5q-40 -46 -80 -105.5t-82 -134.5q-2 -5 -9.5 -22.5t-21.5 -48.5q-27 -62 -50 -97t-58.5 -55.5t-92.5 -20.5q-38 0 -72 24
q-35 26 -41 55q19 2 37 5.5t32 10.5t22 19t8 32q-3 30 -15.5 45t-43.5 15q-9 0 -24 -7.5t-28.5 -19.5t-23.5 -28t-10 -34q0 -35 14.5 -62t38.5 -45.5t55.5 -28t65.5 -9.5q156 0 261 102q105 103 150 273q35 91 69 149t106 120q24 -24 36 -52t12 -55q0 -20 -7 -38
q-14 -36 -25 -51q-6 -8 -15.5 -17.5t-23.5 -19.5q-26 -20 -28 -22q-12 18 -39 18q-20 0 -38 -11t-20 -30z" />
    <glyph glyph-name="C" unicode="C" horiz-adv-x="600" 
d="M340 646q-42 13 -84 13q-45 0 -83 -15t-66 -40t-43.5 -57t-15.5 -65q0 -57 30 -93q29 -34 50 -48q-2 -5 -6 -17t-11 -29q-12 -34 -19 -60.5t-7 -53.5q0 -181 192 -181q56 -2 103.5 17.5t82 49.5t53.5 66.5t19 68.5q0 48 -26 76t-75 28q-36 0 -59.5 -5.5t-39 -17.5
t-25 -30.5t-16.5 -44.5q-4 -11 -4 -30q0 -21 5.5 -44t9.5 -33q9 0 11 9q2 8 2.5 19t1.5 25q2 27 6 44.5t17 32.5q15 20 38.5 29.5t53.5 9.5q25 0 43.5 -17t18.5 -45q0 -22 -14.5 -53t-41 -59t-64.5 -47.5t-85 -19.5t-75 19t-28 81q0 50 26 104q13 27 24 46.5t20 32.5
q71 10 148 34t141.5 62.5t106 91t41.5 118.5q0 28 -24 50.5t-65 22.5q-76 0 -138 -27t-114 -62q-52 -38 -84.5 -70.5t-48.5 -54.5q-8 -11 -17 -24.5t-18.5 -27.5t-18 -26.5t-14.5 -19.5q-40 41 -40 94q0 31 15.5 61t44.5 54t71 40t95 18zM459 585q76 72 133 72q26 0 43 -18
q9 -11 9 -25q0 -31 -45 -80q-33 -36 -73 -67t-82 -54.5t-83.5 -38t-78.5 -18.5q44 64 84 122t93 107z" />
    <glyph glyph-name="D" unicode="D" horiz-adv-x="773" 
d="M15 399q0 -33 6.5 -62t24 -50.5t48.5 -34t81 -12.5q106 0 171 87q66 88 66 211q0 15 -0.5 26t-1.5 19q-3 3 -6 3q-8 0 -9 -13q-12 -51 -25.5 -96t-38.5 -93t-63.5 -80t-90.5 -32q-33 0 -60 28t-27 76q2 45 24 95.5t62 92.5t97 70t129 28h11q5 0 10 -1q33 -3 57.5 -6
t45 -9t39 -16t38.5 -27q-88 -99 -151.5 -188t-99.5 -152q-17 -31 -33 -59t-30 -54q-27 -53 -33 -54q-8 5 -21 12.5t-32 15.5t-39 13t-42 6q-60 0 -91 -17t-31 -55q0 -71 135 -71q25 0 43 3t33.5 8t31 13t36.5 19q11 -5 31 -17l30 -15q10 -3 30.5 -6t56.5 -3q43 -1 83.5 13.5
t76 41.5t64.5 64t50 80t32 90t10 94q0 42 -10 78.5t-22 59.5q-6 11 -12.5 23t-14.5 23q-14 25 -14 27q0 4 33 24q34 19 34 31q0 4 -3 7q-5 5 -15 5q-9 0 -20.5 -3.5t-23.5 -9t-22.5 -11t-16.5 -9.5q-24 12 -53 23t-58.5 20t-56 14t-45.5 5q-127 0 -209 -33.5t-125 -82.5
t-57 -93.5t-17 -83.5zM682 393q-3 -97 -22.5 -161t-47.5 -99q-28 -34 -53 -50q-13 -8 -31 -17.5t-41 -20.5q-19 -10 -51 -10q-49 0 -113 30q91 60 140.5 119t71.5 108t51 135q14 43 28 76t27 57q41 -59 41 -167zM225 62q-19 -8 -58 -18q-41 -11 -70 -11q-54 0 -54 38
q0 36 49 36q32 0 78 -17q46 -16 55 -28z" />
    <glyph glyph-name="E" unicode="E" horiz-adv-x="545" 
d="M417 385q0 37 -48 37q-17 0 -35 -3q-4 9 -10 30t-6 47q4 30 18 56t33.5 45.5t44 30.5t50.5 11q20 -2 37 -8t33 -14q32 -17 32 -69q0 -38 -23 -67q-22 -28 -50 -28q-15 0 -27 9q-18 13 -18 34t17 45t43 44q-2 0 -3 5t-4 5q-15 -2 -30.5 -9t-28 -19.5t-20 -30t-7.5 -41.5
t21 -46q22 -22 45 -22q22 0 42.5 6t36.5 20.5t25 37.5t9 57q0 30 -12 56.5t-34 46.5t-53 31.5t-69 11.5q-46 0 -81.5 -9.5t-60.5 -24.5t-41 -32.5t-23 -33.5q-12 -26 -12 -61q0 -65 36 -117q-46 -4 -90.5 -21t-79.5 -45t-56 -65t-19 -80q-2 -39 18 -76.5t52.5 -66.5t72 -46
t75.5 -16q44 0 89 16t82 43.5t60 64.5t23 79q-2 31 -11 50t-22.5 29.5t-30 14.5t-34.5 6q-20 0 -44.5 -7.5t-45.5 -25t-35 -47t-14 -73.5q0 -11 0.5 -19.5t1.5 -14.5l13 -2q4 7 9.5 19t12.5 29q15 34 27 57q12 22 31.5 38.5t46.5 17.5q25 0 43.5 -19t19.5 -48
q1 -21 -14.5 -51.5t-42.5 -58.5t-65 -47t-82 -17q-48 0 -82 37q-35 38 -38 81q-2 35 17 76t45.5 76.5t55.5 58.5t48 22q11 0 19 -8q27 -27 66 -27q21 0 36 9.5t15 25.5z" />
    <glyph glyph-name="F" unicode="F" horiz-adv-x="681" 
d="M115 404q0 -25 9.5 -45t23.5 -34.5t30.5 -22.5t31.5 -8q64 0 109.5 35.5t72.5 98.5q13 30 13 85q0 14 -3 62q0 7 -2 8.5t-8 1.5q-2 -8 -8 -26t-15 -47q-16 -56 -35 -95q-17 -37 -47.5 -64t-72.5 -27q-15 0 -28.5 7t-23 16.5t-15 21t-5.5 20.5q-1 32 14.5 63.5t40.5 60
t57 52.5t64.5 41.5t63.5 27t53 8.5q37 0 68.5 -10t71.5 -30q20 -9 36 -16.5t30.5 -12t28.5 -7t30 -2.5q34 1 55.5 4.5t36.5 13.5t27.5 28.5t27.5 48.5q3 3 3 8q0 3 -15 3q-38 -15 -89 -15q-39 0 -78 6q-19 4 -41 8t-48 9q-52 11 -61 11q-76 1 -149 -26t-129.5 -69.5
t-91 -93.5t-33.5 -98zM374 298q-18 0 -54 -14t-88 -59q-4 -4 -4 -9q0 -4 3.5 -7.5t5.5 -3.5q19 14 34.5 24t27.5 16q23 13 65 27q-14 -47 -38.5 -90.5t-55 -76.5t-63.5 -53t-64 -20q-36 0 -63 18.5t-36 48.5q45 0 71.5 15t26.5 53q0 7 -4 17t-11.5 19t-18 15t-23.5 6
q-30 0 -59 -17q-27 -17 -27 -67q0 -71 45 -105q47 -35 111 -35q158 0 236 90q77 89 115 188q15 2 25 4.5t19 2.5q0 -16 -13 -48q-15 -35 -28 -53q10 1 26 1h28q5 14 13.5 42t8.5 59q22 7 41.5 15.5t36.5 19.5q35 23 35 47q0 10 -9 25q-13 19 -32 19q-13 0 -27 -7.5
t-27 -20.5t-24 -30.5t-19 -37.5q-2 -2 -23 -5q-21 -2 -23 -5q10 37 20.5 68t23.5 57q25 51 75 121q-2 0 -5 1.5t-4 1.5q-46 -10 -84 -40.5t-68.5 -69t-55 -79t-42.5 -68.5zM591 316q7 30 26 51.5t38 21.5q8 0 12 -4q7 -6 7 -15q0 -18 -21.5 -34.5t-61.5 -19.5z" />
    <glyph glyph-name="G" unicode="G" horiz-adv-x="636" 
d="M38 457q-1 -37 18 -68.5t49.5 -55t68.5 -37t76 -14.5q27 -37 61 -54.5t79 -17.5q11 0 23.5 2.5t24.5 6.5t22.5 8t17.5 7q-37 -35 -66.5 -73.5t-53.5 -68.5q-23 -29 -47 -44.5t-64 -20.5q-48 0 -74.5 23t-26.5 55q48 0 71 15.5t23 52.5q0 8 -5.5 16.5t-13.5 16t-17 12
t-16 4.5q-9 0 -23.5 -2.5t-28.5 -12.5t-24 -28.5t-10 -50.5q0 -61 47.5 -95t128.5 -34q47 0 82.5 4.5t62 14t46 24t34.5 33.5t35.5 56.5t46.5 94.5t42 91.5t22 47.5l2 6q0 8 -9 8q-5 0 -10 -4q-27 -19 -68 -50q-19 -14 -33.5 -25t-25.5 -18q-20 -13 -46 -22.5t-62 -11.5
q-31 0 -50 14.5t-25 23.5q60 19 122.5 51t113.5 74t81 92.5t30 107.5q0 39 -31.5 58.5t-75.5 19.5q-71 1 -133 -21.5t-108 -63t-72.5 -94.5t-24.5 -114q0 -41 10 -78q-33 7 -57.5 14t-41.5 17.5t-26.5 26.5t-11.5 41q-2 43 19.5 85.5t52.5 78t64.5 59.5t56.5 29q-1 2 -2 5
t-2 5q-51 -5 -96 -24.5t-79 -50t-53.5 -68.5t-19.5 -79zM427 550q48 51 85 78t71 27q10 0 21 -3q20 -6 20 -25q0 -37 -65 -111q-32 -36 -67.5 -69t-74.5 -62q-77 -58 -113 -58q8 54 36.5 107t86.5 116z" />
    <glyph glyph-name="H" unicode="H" horiz-adv-x="807" 
d="M522 347q-8 -3 -32 -9.5t-46 -11.5q18 66 38 118t38 86t36 65t24 47q-2 8 -8 8q-3 0 -4 -0.5t-6 -2.5q-8 -5 -23.5 -17t-38.5 -31q-23 -18 -44 -34.5t-40 -30.5q-38 -28 -64.5 -46.5t-37.5 -18.5q-4 0 -5 3q0 18 6 48q7 29 7 42q0 15 -9 22t-34 7q-30 0 -74 -32
q-22 -16 -42 -34.5t-39 -38.5q-37 -40 -43 -52q0 -14 5 -14q4 0 8 4q73 70 102 96q31 26 49 29q3 -3 3 -9t-11 -42q-10 -33 -10 -51q0 -30 23 -42q5 -4 15 -4t22 5.5t29 17.5t40.5 31t55.5 45q-9 -12 -17 -24t-15 -24q-14 -23 -39 -66q-24 -43 -34 -61.5t-14 -26.5
q-15 -9 -41.5 -23.5t-47.5 -26.5q-20 -12 -47 -29.5t-52 -36.5q-3 -3 -3 -8q0 -9 11 -25q8 5 20.5 13.5t28.5 19.5q30 22 52 35q10 6 22.5 12t28.5 13q-18 -45 -42 -84.5t-51 -69t-54.5 -46.5t-52.5 -17q-48 0 -80 20.5t-40 54.5q20 -5 30 -5q33 0 55 21.5t22 48.5
q0 23 -18 42t-44 19q-42 0 -61.5 -19t-19.5 -71q0 -40 11.5 -65.5t32 -41t49 -21.5t63.5 -7q91 0 152.5 29t98.5 74q38 44 74 110q18 33 28.5 52.5t14.5 24.5q7 2 16.5 4t22.5 6q25 7 37 9q-49 -108 -49 -178q0 -16 1 -21q4 -63 29.5 -90.5t87.5 -27.5q45 0 103 41
q57 41 95 110q0 17 -12 17q-35 -52 -83 -94t-79 -42q-15 0 -22 10q-9 12 -9 42q0 15 2.5 35t4.5 28q31 112 96 211q70 26 131 57q63 31 124 87t62 126q0 70 -72 70q-70 0 -143 -53q-71 -53 -130.5 -125.5t-123.5 -165.5zM780 550q36 48 74 79t62 31q21 0 29 -24q4 -16 4 -23
q1 -32 -24.5 -64t-64 -61t-84 -53.5t-85.5 -41.5q5 8 12 21.5t17 32.5t17.5 33.5t14 26t13 21.5t15.5 22z" />
    <glyph glyph-name="I" unicode="I" horiz-adv-x="593" 
d="M163 382q0 -61 23 -96q12 -17 27.5 -30t32 -22.5t31 -16.5t25.5 -12q-17 -25 -32.5 -46t-31.5 -38q-30 -34 -70.5 -58t-85.5 -24q-82 13 -82 66q8 -1 13.5 -1.5t7.5 -0.5q34 0 51.5 21t17.5 47q0 24 -18 42.5t-45 18.5q-18 0 -33.5 -8.5t-27 -23t-17.5 -33t-6 -39.5
q0 -60 54 -94q52 -34 122 -34q43 0 85.5 10t82 33.5t77 63t71.5 98.5q51 7 85.5 35.5t55.5 65t30 73t9 58.5l-19 8q-7 -40 -16 -71.5t-22 -54.5q-25 -46 -95 -59q30 117 70 192.5t79 118.5q20 22 41.5 41t44.5 36t36 26.5t15 11.5q-10 1 -33.5 2.5t-50.5 1.5q-19 0 -34.5 -1
t-27.5 -3q-84 -9 -162 -31t-139 -59t-99 -90t-40 -124zM609 644q-61 -47 -103 -89t-79 -91q-13 -18 -30 -50t-33 -65t-29 -61.5t-17 -40.5q-16 4 -43 21q-26 18 -35 56q-1 27 11 61t35 69t56.5 69t74.5 60.5t89.5 43t102.5 17.5z" />
    <glyph glyph-name="J" unicode="J" horiz-adv-x="556" 
d="M609 645q-72 -55 -125.5 -117.5t-89.5 -122.5q-34 -58 -77 -142q-21 -42 -35.5 -69.5t-22.5 -41.5q-27 -3 -86.5 -16t-140.5 -46q-79 -31 -140 -91t-61 -144q0 -30 6 -49t20 -30t36.5 -15t55.5 -4q98 0 186 65q45 32 82 69t68 79q61 82 95 145q33 -8 56.5 -27t23.5 -44
q-5 -51 -45 -79.5t-104 -41.5q-8 -5 -8 -11q0 -10 18 -10q27 -1 58.5 11.5t57.5 32t42.5 43.5t15.5 48q-3 37 -26.5 64t-72.5 52q34 84 65 158.5t70 147.5q39 75 88.5 129.5t109.5 72.5q3 1 7.5 3t4.5 4q0 6 -3 9.5t-5 4.5q-13 3 -39.5 6t-59.5 3h-15q-6 0 -10 -1
q-52 -5 -104.5 -15t-107.5 -26q-109 -31 -190 -102t-81 -182q0 -46 16.5 -73t52.5 -42q17 -5 31 -5q20 0 38.5 3.5t26.5 6.5q7 0 7 12q0 13 -12 15q-8 -1 -14 -1.5t-11 -0.5q-36 0 -55.5 16t-19.5 36q-1 37 18 74.5t51.5 73t75 66.5t87.5 53.5t88.5 35.5t78.5 12
q4 0 10 -0.5t14 -1.5zM241 116q-33 -51 -53.5 -90t-40.5 -76q-19 -38 -41 -65t-61 -57q-23 -17 -56 -28.5t-59 -11.5q-22 0 -30 8q-21 19 -21 49q-1 36 29 81.5t80.5 87t116 70.5t136.5 32z" />
    <glyph glyph-name="K" unicode="K" horiz-adv-x="757" 
d="M485 345q0 -18 12 -24t33 -6q12 0 12 -13q0 -15 -19 -62t-29.5 -77.5t-10.5 -62.5q0 -49 17 -74.5t68 -25.5q32 0 55.5 12.5t39.5 31.5q8 10 18.5 22.5t21.5 29.5t21.5 30.5t19.5 24.5q0 13 -3 18.5t-12 5.5q-10 -11 -22 -25t-26 -33q-28 -37 -42 -52.5t-27 -15.5
q-1 0 -9 2q-9 7 -9 29q0 18 12 68q13 52 14 72q0 20 -3.5 39t-9 35t-11 28.5t-9.5 19.5q19 12 63 53.5t95 113.5q9 10 18.5 24t19.5 29t20 28.5t19 24.5q19 22 46.5 37.5t72.5 24.5l2 6q-1 7 -14 9q-89 -2 -144 -36q-54 -32 -80 -72q-12 -20 -28.5 -49t-36.5 -67
q-41 -77 -72 -108q-17 20 -41 20q-17 0 -29.5 -10t-12.5 -25zM595 666q0 9 -4 9t-16 -9q-75 -75 -112 -106q-19 -16 -53.5 -40t-85.5 -58q-9 1 -9 13q0 7 3.5 19.5t7.5 26.5t7.5 27t3.5 21q0 37 -44 37q-49 -1 -109 -55t-107 -111q0 -9 10 -9q6 0 12 3q22 23 37 41t31 32.5
t35 26.5t48 24q4 0 4 -5q0 -7 -13 -37q-12 -31 -17 -46.5t-5 -31.5q0 -33 33 -37q30 0 63 18q17 10 36 22t41 28t34.5 25t15.5 11q-12 -20 -25.5 -41t-28 -42t-28 -40.5t-23.5 -34.5t-19.5 -30.5t-19.5 -31.5q-18 -32 -45 -90q-14 -32 -36.5 -61.5t-48.5 -53t-53 -38
t-51 -14.5q-57 0 -90 21t-36 44q108 0 108 72q-2 19 -17.5 38t-41.5 19q-38 0 -64 -21t-26 -73q0 -57 39.5 -93t126.5 -36q78 0 141.5 25t113 69.5t84.5 107t55 137.5l20 75t13 44q5 15 12.5 33t18.5 38q11 21 29.5 55.5t44.5 82.5z" />
    <glyph glyph-name="L" unicode="L" horiz-adv-x="734" 
d="M139 436q2 -48 15 -77.5t38 -48.5q13 -9 26.5 -16t30.5 -13t38 -12.5t50 -13.5q-4 -37 -30 -82q-13 -22 -23 -38.5t-18 -27.5q-33 14 -57 24.5t-39 15.5q-30 11 -59 11q-51 0 -81.5 -18.5t-30.5 -61.5q0 -46 32.5 -61.5t99.5 -15.5q10 0 29 3t47 10q57 13 90 21
q13 -4 31.5 -9t44.5 -12q51 -13 92 -13q72 0 127.5 35.5t107.5 102.5q0 18 -10 18l-1.5 -0.5t-5.5 -1.5q-27 -25 -46.5 -42.5t-32.5 -28.5q-25 -20 -63 -37t-81 -17q-30 0 -56 9.5t-65 33.5q46 48 74 82.5t43.5 57.5t23 35.5t12.5 16.5q17 8 43.5 22.5t61.5 36.5
q72 44 140 117q70 73 70 154q0 51 -20.5 72t-71.5 22q-73 0 -137 -55q-32 -28 -60.5 -59.5t-51.5 -68.5q-48 -73 -75 -131t-36 -83q-70 12 -114.5 44t-44.5 81q0 113 61 181q61 69 193 69q19 0 42 -2t49 -6q5 1 13.5 3.5t8.5 6.5t-14 12q-13 3 -41 6t-65 3q-41 0 -68 -7
q-55 -15 -99 -35.5t-74.5 -50.5t-46.5 -69.5t-16 -91.5zM745 652q16 -12 16 -36q2 -29 -22 -73.5t-62.5 -89.5t-85.5 -83.5t-91 -56.5q17 64 54 146q20 42 41 77.5t44 64.5q47 59 83 59q12 0 23 -8zM234 73q-21 -18 -54.5 -28.5t-67.5 -10.5q-35 0 -57 12t-22 36
q0 21 17.5 31.5t45.5 10.5q39 0 80 -16q42 -15 58 -35z" />
    <glyph glyph-name="M" unicode="M" horiz-adv-x="883" 
d="M-40 28q-30 0 -58 18q-28 19 -28 42q105 13 105 82q-5 32 -25 52t-40 20q-25 0 -58 -30t-33 -76q0 -33 12.5 -59t32.5 -43t44.5 -26t47.5 -9q60 0 137 72q38 36 78.5 83t85.5 105q45 59 85.5 112.5t78.5 104.5q78 102 117 127q-59 -62 -117 -157q-29 -48 -52 -95t-42 -93
q-36 -92 -36 -138q0 -19 7.5 -40t19 -38.5t25 -29.5t24.5 -13q29 0 74 56q23 28 55 74t75 110t75.5 111t54.5 78q43 61 88 95q-14 -20 -31 -44t-37 -51q-19 -27 -35 -52.5t-30 -50.5q-27 -48 -43.5 -99.5t-16.5 -105.5q0 -24 2.5 -46t10.5 -38.5t23 -26.5t40 -10
q45 0 96.5 42t96.5 114q-4 0 -7.5 8t-6.5 8q-14 -13 -29 -27t-32 -30q-33 -31 -53 -45t-34 -14q-6 6 -6 18q0 26 29 96q30 69 93 192t186 354q-71 -8 -162 -93q-46 -43 -88.5 -90.5t-83.5 -99.5q-40 -52 -81 -106.5t-83 -113.5q-84 -117 -92 -117q-3 3 -3 12q0 25 29.5 97.5
t92.5 204.5q31 66 54 115.5t37 81.5q15 33 27 62t20 54q-90 -19 -182 -114q-46 -48 -99 -113t-114 -149t-108.5 -144t-82.5 -98q-69 -76 -130 -76z" />
    <glyph glyph-name="N" unicode="N" horiz-adv-x="669" 
d="M802 601q1 3 9 3q7 0 19 -1.5t27 -1.5q19 0 30.5 7.5t11.5 29.5q-4 37 -35 37q-9 0 -20.5 -4t-23 -10.5t-21.5 -14.5t-17 -17q-10 -11 -19 -23t-19 -25q-9 -13 -27.5 -39.5t-47.5 -67.5q-57 -81 -92 -129t-57 -70q2 13 4.5 32t6.5 45t6 48.5t4 39.5q2 16 3.5 34t3.5 38
q2 21 3 35t2 22t2.5 21.5t3.5 33.5t4 35t4 23q-6 -1 -11 -2t-7 -4q-63 -51 -114 -101t-93 -102q-83 -102 -159 -225q-78 -123 -120 -170q-44 -47 -102 -47q-35 0 -56 22t-24 54q18 -6 33 -6q27 0 42 17t15 38q0 29 -19 48.5t-46 19.5q-33 0 -51.5 -23.5t-18.5 -68.5
q3 -57 35 -94.5t90 -37.5q40 0 77.5 24t70.5 62q17 20 37 46t43 60t38 54t20 28q11 16 26 37t33 47t33.5 48.5t28.5 41.5q27 37 55 69t59 58q-21 -40 -39 -81t-32 -91t-23 -113t-12 -146q0 -16 1 -35.5t3 -42.5q5 -48 6 -71q46 13 85 29t55 24q-5 46 -7 80.5t-2 68.5
q14 20 35.5 51t50.5 74t59 85.5t60 86.5q31 44 50.5 70.5t29.5 36.5z" />
    <glyph glyph-name="O" unicode="O" horiz-adv-x="574" 
d="M0 189q0 -71 39 -129q39 -59 118 -59q87 0 166 52t139 132q30 40 53.5 80t40.5 81q35 84 35 132q0 24 -15 62q-14 38 -58 38q-57 0 -111 -46.5t-99 -121.5q-40 -68 -69 -146q-14 -38 -23 -71t-14 -61q1 0 5.5 -2t7.5 -2t5 3q2 11 7.5 29t15.5 42q19 48 41.5 95t44.5 89
q14 25 37 55t48.5 55.5t50.5 42t43 15.5q45 0 53 -62q1 -30 -16 -76.5t-46.5 -98.5t-68 -104t-80.5 -93.5t-84 -66.5t-78 -23q-88 0 -88 73q0 60 44 153q45 91 117 186q74 96 148 156q77 62 134 65q45 0 69 -24.5t26 -79.5l17 2q-1 8 -2 20t-3 26q-5 29 -15 41
q-22 26 -44 34t-77 8q-96 -2 -188 -47.5t-167 -123.5q-37 -38 -66.5 -79.5t-50 -84.5t-31.5 -85t-11 -81z" />
    <glyph glyph-name="P" unicode="P" horiz-adv-x="728" 
d="M309 282q-14 -5 -14 -13q0 -7 4 -12.5t6 -7.5q7 1 16 3t20 5q23 7 38 9.5t30 2.5q-17 -30 -30.5 -54t-25.5 -43.5t-24 -36t-26 -31.5q-27 -31 -59.5 -47.5t-72.5 -16.5q-48 0 -77 15t-42 50q22 -8 42 -8q29 0 47 16t18 52q-1 28 -16.5 46.5t-47.5 18.5q-36 -2 -62 -23.5
t-26 -71.5q0 -74 53 -103.5t145 -30.5q65 -1 116 17t90.5 46.5t68.5 63.5t48.5 68t31.5 59t18 38q7 2 52 9q23 4 47 11t49 17t48.5 26t40.5 36.5t27.5 46.5t10.5 58q0 58 -18 91t-44 55q10 5 28.5 14t35.5 19q8 5 8 9t-5.5 7.5t-11.5 4.5q-17 0 -43.5 -8.5t-53.5 -18.5
q-23 8 -42 13t-36 7t-39 3t-50 1q-68 0 -125.5 -9t-104 -25t-83 -36.5t-61.5 -44.5q-26 -23 -44 -46.5t-29.5 -44.5t-17.5 -39t-6 -30q0 -54 35 -84q33 -29 76 -37q5 -1 11.5 -1.5t16.5 -0.5q43 0 90 18q45 19 62 36q22 24 40 52.5t33 75.5q5 18 5 50q0 55 -5 75q-9 4 -12 4
q-3 1 -5.5 -2.5t-5 -10t-4 -13.5t-3.5 -11q-14 -41 -31.5 -79.5t-43 -70t-61.5 -53.5t-86 -28q-14 0 -27.5 6t-24 16.5t-17.5 24.5t-7 30q0 30 29 72.5t83.5 81.5t134 66t179.5 26q5 0 16.5 -1.5t31.5 -5.5q20 -3 36.5 -6t29.5 -5q-42 -30 -82.5 -77t-76.5 -98
q-35 -51 -63 -96q-27 -44 -30 -48q-27 -6 -74 -24q-24 -9 -37 -13.5t-15 -5.5zM751 614q18 -38 18 -73q1 -35 -15 -68t-42 -60t-57.5 -45.5t-61.5 -22.5q12 48 29.5 91.5t37.5 79.5t43.5 61.5t47.5 36.5z" />
    <glyph glyph-name="Q" unicode="Q" horiz-adv-x="649" 
d="M98 364q0 -49 33 -83q34 -34 82 -34q41 0 76.5 13t63.5 36.5t48 57t29 74.5q3 13 3 29q0 19 -3 38.5t-7.5 37t-10 32.5t-9.5 24q-2 2 -3 2t-4 -1t-4 -1q-3 0 -4 3q-6 -19 -7.5 -40.5t-2.5 -43t-3.5 -42.5t-9.5 -39q-10 -29 -26 -55t-34.5 -45.5t-39 -31.5t-40.5 -12
q-36 0 -65 16q-29 17 -29 65q-1 33 16 68t45.5 69t64.5 64t74 52.5t74.5 35t64.5 11.5q18 0 35.5 -5t30.5 -15.5t21 -26.5t8 -38q0 -23 -10 -57t-28 -72.5t-41.5 -79.5t-50.5 -79q-18 -26 -37.5 -50t-39.5 -46t-35 -37.5t-25 -23.5q-108 37 -164 37q-54 0 -92.5 -25
t-42.5 -68q0 -80 96 -80q33 0 59.5 5.5t46.5 13t33 16t19 14.5q7 -6 20.5 -13.5t34 -14.5t47.5 -12t60 -5q34 0 60 6.5t49.5 24t48.5 48.5t57 79q-3 0 -7 5t-8 5q-12 -13 -27.5 -26.5t-32 -24.5t-35 -19t-36.5 -9q-33 0 -63 8t-44 14q19 22 81 72q31 26 58.5 50.5t50.5 47.5
q24 24 45.5 51t37 57t25 62.5t9.5 67.5q0 36 -13 67t-38.5 54.5t-62.5 36.5t-86 13q-69 0 -139 -33.5t-125 -87.5q-27 -26 -49.5 -53.5t-38.5 -54.5t-25 -52.5t-9 -46.5zM195 73q-28 -17 -60 -28t-58 -11q-45 0 -46 39q1 39 44 39q30 0 66 -15q36 -14 54 -24z" />
    <glyph glyph-name="R" unicode="R" horiz-adv-x="881" 
d="M577 354q-2 -6 -2 -10q0 -25 60 -25q0 -19 -13 -44q-7 -13 -18 -34t-27 -52q-33 -62 -34 -75q-3 -27 -3 -33q0 -84 101 -84q40 0 89 31q25 16 46.5 33t39.5 37q37 40 37 57l-2 6q-3 3 -6 3q-10 0 -44 -33q-35 -33 -57.5 -50.5t-49.5 -19.5q-9 0 -9 9q0 7 10 40
q5 18 9.5 34.5t7.5 31.5q10 40 10 78q0 45 -19 65q-5 1 -12.5 3.5t-7.5 5.5t13 6q45 13 82 28.5t63 35.5t40.5 45.5t14.5 58.5q0 28 -8.5 52t-23 43.5t-33 34t-38.5 24.5q0 -1 7 4t24 15q11 6 11 13t-9 9q-28 0 -101 -24q-26 5 -47 8t-38 5t-38 3t-47 1q-66 0 -122 -9.5
t-102 -26t-82 -38.5t-61 -46q-50 -49 -71.5 -94.5t-23.5 -70.5q0 -52 32 -78q31 -24 73 -32q5 -1 12 -1.5t17 -0.5q43 0 90 18q46 18 60 32q43 41 70 129q6 19 6 50q0 26 -2.5 45t-3.5 28q-7 4 -11 4q-9 0 -10.5 -11.5t-7.5 -25.5q-30 -92 -78 -157q-48 -63 -141 -69
q-28 0 -45.5 17t-17.5 54q2 30 29.5 72.5t79 81.5t126.5 66t174 26q11 0 50 -6q38 -6 62 -12q-43 -31 -75.5 -63.5t-60.5 -70.5q-14 -19 -26 -37.5t-23 -35.5t-26.5 -44t-36.5 -62q-10 -17 -23 -40.5t-30 -52.5q-32 -57 -64 -98q-30 -40 -64.5 -63.5t-72.5 -23.5
q-46 0 -72 13.5t-34 47.5q13 -3 27 -3q31 0 52.5 15.5t21.5 47.5q-2 27 -17 45t-47 18q-36 -1 -61 -22.5t-25 -70.5q0 -61 46.5 -99t127.5 -39q81 0 145 30t109 81q46 51 79.5 117t61.5 148q15 43 34 83.5t40.5 74.5t44.5 58.5t47 35.5q55 -28 55 -84q1 -26 -12.5 -56
t-33.5 -56.5t-42.5 -47.5t-39.5 -29q-32 21 -54 21t-31 -19z" />
    <glyph glyph-name="S" unicode="S" horiz-adv-x="692" 
d="M173 445q1 -45 12.5 -75t35 -51t61 -36t91.5 -28q-2 -5 -7.5 -17.5t-14.5 -32.5q-19 -42 -46 -81q-27 -42 -64.5 -69.5t-82.5 -27.5q-40 0 -62.5 16t-32.5 48q38 4 60 20.5t22 44.5q0 68 -63 68q-15 0 -30 -4.5t-26.5 -15.5t-18.5 -29t-7 -46q0 -27 11 -50.5t31.5 -41.5
t50 -28t65.5 -10q96 0 166 40q36 20 64.5 44t50.5 50q43 54 63 94.5t26 57.5q25 10 56 25t69 36q77 44 138 109q63 67 63 147q0 38 -22 62.5t-70 24.5q-85 0 -155 -57q-69 -54 -118 -131q-48 -75 -73 -131.5t-33 -82.5q-30 0 -58.5 11t-50.5 27.5t-35.5 37t-13.5 39.5
q0 54 20.5 101t62.5 81.5t105 54.5t149 20h26l2 23q-14 4 -44.5 8.5t-68.5 4.5q-31 0 -48 -4q-102 -22 -180 -77q-76 -54 -76 -169zM788 652q21 -17 21 -44q1 -29 -23 -68.5t-63 -80t-89 -77.5t-99 -61q9 27 23.5 61t34.5 76q41 84 87 143q46 60 83 60q13 0 25 -9z" />
    <glyph glyph-name="T" unicode="T" horiz-adv-x="640" 
d="M115 398q0 -24 9 -44t25 -34.5t37.5 -22.5t47.5 -8q51 0 96.5 40.5t81.5 130.5q12 28 12 69q0 30 -7.5 48t-23.5 18q-13 -59 -29.5 -107t-37.5 -81.5t-48 -52t-61 -18.5q-30 0 -45 21.5t-15 52.5q0 6 5.5 19.5t16 31t26 37.5t34.5 40q39 40 94.5 68.5t121.5 28.5
q36 0 65 -8t66 -23q38 -14 65 -21.5t57 -7.5q32 0 60 10.5t48.5 25.5t32.5 31t12 27q-2 3 -5 3q-5 0 -26 -9t-37.5 -13.5t-37.5 -4.5q-19 0 -40 6q-13 3 -30 7.5t-40 11.5q-22 6 -37.5 10.5t-27 7.5t-20.5 4t-18 1q-53 -1 -105.5 -13.5t-100.5 -34t-89 -50.5t-70.5 -61.5
t-46 -67.5t-15.5 -68zM61 101q90 0 94 64q0 23 -19 42.5t-42 19.5q-89 0 -89 -103q0 -58 53 -91q52 -33 121 -33q78 0 135.5 24.5t97.5 66.5q40 41 67.5 89.5t58.5 114.5q10 22 14.5 35.5t8.5 33.5q5 20 9.5 39.5t13.5 47.5q8 26 29 59q22 34 22 43q0 4 -3 7
q-37 -8 -68 -29.5t-57 -53.5t-49.5 -73.5t-45.5 -90.5q-23 -45 -42 -80t-35 -62q-31 -53 -70 -90.5t-82 -39.5q-74 0 -97 22t-25 38z" />
    <glyph glyph-name="U" unicode="U" horiz-adv-x="585" 
d="M402 298q-6 -2 -24.5 -5.5t-38.5 -3.5q-24 0 -35.5 2t-14.5 4q6 17 24 49.5t43 80.5q53 98 53 130q0 63 -38.5 99.5t-104.5 36.5q-42 0 -80 -16.5t-67.5 -45.5t-46.5 -68.5t-17 -85.5t18 -83q9 -19 19 -36t21 -32t17 -22.5l6 -7.5q-6 -9 -30 -36q-23 -27 -36 -55t-17 -76
q0 -9 5 -30t20.5 -43t42.5 -38.5t70 -15.5q31 0 58 8.5t48.5 23t37.5 32.5t27 38t22 42t22 46q20 48 29 55l22.5 7.5t29.5 10.5t33.5 14t33.5 17q28 14 52 29.5t46 32.5q44 33 44 48q-4 13 -14 13q-12 0 -56 -29q-21 -14 -40.5 -26t-39 -22.5t-40.5 -19t-46 -14.5
q5 25 16 56.5t27 71.5q17 40 34.5 74.5t36.5 65.5q39 61 67 61q-2 -6 -6 -19t-4 -27q0 -13 6 -22q19 -27 57 -27q28 0 47.5 17.5t19.5 50.5q0 48 -24.5 67.5t-59.5 19.5q-26 0 -50 -12t-46 -33.5t-42 -50t-36 -61.5q-17 -33 -33 -70t-32 -79t-25 -64.5t-11 -26.5zM328 636
q37 -19 37 -62q0 -28 -16 -53q-38 -58 -82.5 -105.5t-86.5 -79.5q-7 0 -15.5 10.5t-16 28t-12.5 39t-5 43.5q0 37 19.5 70.5t46.5 59t57.5 40t53.5 13.5q15 0 20 -4zM266 245q26 -10 69 -10q34 0 46 4q-20 -53 -38.5 -87.5t-36 -55.5t-35 -29.5t-34.5 -8.5q-16 0 -31 6
q-16 4 -16 24q0 21 19 57.5t57 99.5z" />
    <glyph glyph-name="V" unicode="V" horiz-adv-x="555" 
d="M272 515q2 16 5.5 34t3.5 34q0 59 -60 59q-38 0 -73 -25q-17 -13 -32 -25.5t-27 -26.5q-11 -14 -30 -37t-45 -55q6 0 9.5 -5t6.5 -5q26 32 49 56t42 40q13 13 36 26l19.5 13t11.5 7q-2 -5 -5.5 -12.5t-8.5 -18.5t-8 -19.5t-5 -13.5q-7 -20 -7 -36q0 -22 12.5 -37.5
t39.5 -17.5q25 0 40 7q9 4 18 9.5t17.5 11t15.5 9t11 3.5q-17 -29 -30 -72q-7 -22 -17.5 -58t-24.5 -87q-29 -102 -48 -165q-10 -31 -20 -58t-21 -50q107 22 192 98q82 75 196 222q57 73 104.5 130.5t87.5 99.5q79 85 186 136q-3 0 -4 7t-4 7q-81 -18 -155 -83
q-37 -32 -82.5 -83t-102.5 -120q-56 -69 -97 -118.5t-67 -79.5q-52 -60 -130 -112q64 98 104.5 192t57.5 201q11 56 43 109q17 27 30 46.5t23 32.5q-4 0 -4 15q-30 -9 -66 -31.5t-76 -55.5q-39 -32 -63.5 -54.5t-47.5 -43.5z" />
    <glyph glyph-name="W" unicode="W" horiz-adv-x="825" 
d="M0 374q0 -54 20 -92q21 -37 81 -37q45 0 85 17t71 48t49 75.5t18 100.5q0 109 -33 109q-1 -15 -7.5 -51t-25.5 -87q-9 -25 -22.5 -50t-32 -47.5t-41.5 -40.5t-51 -29q-9 -4 -24 -4q-25 0 -42 20t-17 53q0 63 51 131q26 34 56.5 62t67.5 50q74 44 129 44q45 0 70 -14
t25 -62q0 -71 -46 -159q-46 -87 -90 -148q-22 -29 -51 -67.5t-66 -86.5q-73 -94 -73 -109q8 -1 39 12.5t71 35t82 48t74 52.5q11 9 22.5 19t22.5 21l28 28t39 40t38.5 40t27.5 28l21.5 21.5t21.5 19.5q-32 -66 -53.5 -125.5t-21.5 -96.5q0 -43 24 -89q24 -44 51 -55
q4 5 12 17t21 32t28.5 46.5t35.5 59.5t32.5 55.5t19.5 34.5q20 33 50.5 71.5t78.5 93.5q49 55 75.5 88.5t26.5 41.5q-16 0 -81 -68q-32 -34 -64.5 -71.5t-66.5 -79.5t-57 -71t-34 -46q13 66 36 136.5t48 137.5q13 34 25.5 66t23.5 62q24 60 24 71q-9 0 -44 -35
q-17 -17 -37.5 -40t-45.5 -52q-50 -57 -78 -87q-37 -44 -67.5 -79.5t-67.5 -74.5t-80 -76.5t-85 -61.5q40 35 77 77t72 92q71 101 72 179q0 30 -6 61t-24.5 55.5t-53.5 40.5t-93 16q-40 1 -82.5 -12t-83 -36t-76.5 -54.5t-62.5 -67t-42 -73.5t-14.5 -74z" />
    <glyph glyph-name="X" unicode="X" horiz-adv-x="750" 
d="M50 360q0 -115 104 -115q35 0 70.5 10.5t66.5 30.5t55 49t38 67q11 30 11 63q-2 43 -27 111l-14 1q1 -5 1.5 -10t0.5 -9q0 -44 -25 -110q-26 -68 -70 -117t-101 -52q-33 0 -56 19.5t-23 61.5q0 24 12 57t33.5 67.5t52 68t66.5 59.5t77 41.5t85 13.5q46 0 73.5 -23
t27.5 -63q-3 -67 -48 -163q-23 -48 -50.5 -94t-61.5 -91t-67.5 -82t-68.5 -66q-66 -57 -117 -59q-23 0 -40.5 5t-30 12.5t-21.5 16t-13 14.5q18 -5 32 -5q32 0 51.5 20.5t19.5 52.5q-2 27 -22.5 44.5t-47.5 17.5q-33 0 -55.5 -22t-22.5 -64q0 -55 43 -87t112 -32
q52 0 101 20t91 49q21 15 43.5 33.5t46.5 40.5q25 22 43 39t31 29q-2 -20 -3 -34.5t-1 -24.5q0 -69 23 -110t74 -42q26 0 54.5 20.5t53 46t41.5 49.5t22 31q-2 0 -10 5.5t-13 5.5q-15 -21 -35 -44t-41 -42t-40.5 -31.5t-34.5 -12.5q-25 0 -40.5 20.5t-18.5 55.5
q-1 41 14.5 93.5t42 108t61 109t70.5 97t71.5 72t63.5 33.5q-7 -11 -7 -33q0 -28 11 -50.5t34 -27.5q6 -2 19 -2q27 0 47.5 16t20.5 58t-17 56.5t-55 14.5q-49 0 -84 -12t-62 -33q-13 -11 -28.5 -26t-33.5 -35t-31.5 -33.5l-21.5 -21.5q-2 51 -6.5 83t-21.5 59
q-17 28 -55.5 44.5t-107.5 16.5q-54 2 -101.5 -14.5t-87.5 -44.5t-72 -64t-54.5 -73.5t-34 -72.5t-11.5 -61z" />
    <glyph glyph-name="Y" unicode="Y" horiz-adv-x="675" 
d="M-3 425q0 -45 23 -64.5t59 -19.5q21 -1 46.5 9.5t49.5 28t42.5 39t26.5 41.5q9 24 15.5 53.5t6.5 51.5q0 28 -9 28q-7 0 -14 -16q-8 -16 -21 -52q-7 -18 -12 -31.5t-9 -21.5q-15 -32 -53 -66q-37 -31 -70 -36q-16 0 -34.5 14.5t-18.5 42.5q0 10 8.5 31.5t25.5 48t41.5 54
t57 49.5t72.5 36t87 12q32 0 53.5 -11t21.5 -33q0 -12 -4 -23t-12.5 -24.5t-21.5 -31.5t-31 -42q-36 -48 -53.5 -84.5t-17.5 -74.5q0 -22 3.5 -37t13 -25t27 -17t44.5 -12q26 0 52 13l66 33q-28 -60 -59.5 -109t-60.5 -80q-29 -30 -57 -46t-53 -19q-40 0 -71.5 17.5
t-41.5 52.5q45 1 66.5 14.5t21.5 44.5q0 28 -14 46t-45 18q-15 0 -30.5 -5t-28 -16.5t-20.5 -29.5t-8 -44q0 -23 11.5 -45.5t35 -41.5t59.5 -30.5t84 -11.5q120 5 199 72q40 33 72 75t57.5 91.5t46.5 106.5t39 122q12 35 33 67q11 16 22.5 31.5t23.5 29.5q24 30 24 35
q-3 3 -9 3q-10 1 -30 -11.5t-42.5 -32t-42.5 -41t-30 -36.5q-16 -22 -36.5 -47t-46.5 -53q-51 -54 -102 -94q-50 -39 -74 -39q-7 0 -11 3q0 22 43 78q22 29 38.5 53.5t28.5 44.5q24 42 24 99q0 67 -34 99t-119 32q-100 0 -174 -47q-73 -46 -112 -111q-38 -64 -38 -108z" />
    <glyph glyph-name="Z" unicode="Z" horiz-adv-x="556" 
d="M625 651q-3 -4 -11 -16.5t-22 -32.5q-26 -41 -36 -54q-19 23 -34 40t-28 29q-25 25 -62 41.5t-94 16.5q-35 0 -75 -12t-75.5 -35.5t-63 -56.5t-38.5 -75q-5 -22 -5 -53q0 -26 2 -47.5t4 -31.5q3 0 7 1t6 1v13q0 6 -1 12q0 35 6.5 73t22.5 69.5t42.5 51.5t66.5 20
q3 0 8.5 -0.5t13.5 -1.5q25 -4 42.5 -8t28.5 -9t23 -12.5t23 -17.5q24 -21 52 -37q14 -8 36.5 -17t52.5 -20q-10 -22 -23 -43t-29 -41q-31 -39 -55 -60t-34 -29q-2 0 -45 9q-41 10 -72 10q-77 0 -77 -69q0 -43 63 -43q31 0 67 18q19 10 32.5 17.5t21.5 13.5q2 -7 4.5 -21
t2.5 -32q0 -13 -3 -23q-2 -7 -6 -17t-9.5 -20.5t-10.5 -20.5l-8 -16q-14 -2 -38.5 -6t-58.5 -10q-67 -10 -121 -32q-52 -21 -85.5 -60.5t-33.5 -102.5q0 -42 24.5 -65.5t70.5 -23.5q102 0 200 75q98 76 158 207q10 5 23 12.5t30 17.5q34 19 51 39q2 6 2 11q0 10 -8 12
q-6 0 -9 -3q-1 -1 -6 -4.5t-13 -10.5q-16 -13 -32.5 -22.5t-33.5 -12.5q1 3 1 7v18q0 78 -39 135q26 26 49.5 53t44.5 55q43 57 59 83q67 24 117 68q20 21 31 47t11 49q0 21 -9 29q-11 10 -29 10q-34 0 -67 -39zM658 572q-18 -15 -38 -24.5t-31 -11.5q11 24 22.5 46
t23.5 38.5t23.5 26.5t21.5 10q7 0 15 -8q4 -4 4 -13q0 -13 -11 -30.5t-30 -33.5zM215 265q0 31 50 31q23 0 40 -3t25 -6q0 -3 -28 -19q-28 -15 -28 -18q-3 0 -15.5 -2.5t-17.5 -2.5q-24 0 -26 20zM214 59q11 2 23.5 4.5t26.5 5.5q28 7 42 10t22 5q-11 -27 -37 -68t-59 -79.5
t-68 -65.5t-64 -26q-28 0 -46 25q-8 7 -13.5 22.5t-5.5 29.5q0 10 3 18q14 34 34.5 55t44.5 33t49 18.5t48 12.5z" />
    <glyph glyph-name="bracketleft" unicode="[" horiz-adv-x="225" 
d="M28 -95l7 48h-51l243 631h57l10 43h-139l-275 -722h148z" />
    <glyph glyph-name="backslash" unicode="\" horiz-adv-x="415" 
d="M-87 668h-59l553 -724l55 -1z" />
    <glyph glyph-name="bracketright" unicode="]" horiz-adv-x="347" 
d="M194 629l-6 -46h52l-245 -631h-56l-9 -44h136l278 721h-150z" />
    <glyph glyph-name="asciicircum" unicode="^" horiz-adv-x="375" 
d="M214 530h-52l-155 -247h59l122 191l115 -191h59z" />
    <glyph glyph-name="underscore" unicode="_" horiz-adv-x="311" 
d="M0 -3h358v31h-358v-31z" />
    <glyph glyph-name="grave" unicode="`" horiz-adv-x="266" 
d="M84 517q-7 10 -21.5 17.5t-24.5 7.5q-25 0 -25 -29q0 -14 34 -35l115 -72h32z" />
    <glyph glyph-name="a" unicode="a" horiz-adv-x="538" 
d="M515 174q-6 -4 -13 -6q-32 -31 -54 -52t-35 -32q-24 -21 -35 -21q-3 0 -5 2q-3 1 -3 8q0 18 21.5 58.5t51.5 92.5q11 17 30.5 53t48.5 90h-109l-36 -61q-10 26 -19 39t-30 24q-17 10 -48 10q-36 0 -81 -17t-93 -54q-29 -22 -49 -40t-37 -35t-33.5 -35t-36.5 -40
q-2 -3 -5.5 -10t-3.5 -10q0 -5 4 -6q12 0 20 7l61 53q-27 -68 -27 -101q0 -29 18 -53q32 -38 83 -38q31 0 55 15q28 16 42 27q7 5 13 10l12 10t18.5 15.5t32.5 27.5q-7 -24 -7 -48q0 -56 54 -56q64 4 129 69l25 25t17 19t13 18t14 23q0 5 -3 10.5t-3 6.5q0 2 3 2zM309 330
q9 0 18.5 -11t9.5 -31q0 -48 -57 -118q-98 -122 -144 -122q-8 0 -12 3q-12 7 -12 24q0 12 5 28.5t13.5 35.5t20 39.5t25.5 39.5q40 54 71.5 82t61.5 30z" />
    <glyph glyph-name="b" unicode="b" horiz-adv-x="460" 
d="M81 280q-8 -13 -20.5 -37.5t-28.5 -59.5q-31 -69 -31 -109q3 -34 19.5 -54t58.5 -22q63 0 113.5 25.5t78.5 65.5q23 -10 48 -10q43 0 71.5 23t54.5 55q5 8 5 16q-1 4 -6 4q-4 0 -7.5 -4t-7.5 -7q-65 -51 -96 -51q-6 0 -14 2t-12 2q17 20 31 37.5t25 31.5q22 28 37 59
t15 62q0 67 -41 72q-34 0 -66 -32q-30 -30 -52 -74q-10 -20 -15.5 -35.5t-6.5 -25.5q-1 -8 -1.5 -13.5t-0.5 -9.5q0 -25 6.5 -47t10.5 -31q-20 -26 -57 -45t-65 -19q-18 0 -24 9q-4 7 -4 15q0 40 47 129q49 90 134 232q85 144 105 186h-126q-14 -17 -57 -84q-22 -34 -45 -70
t-48 -75q-51 -78 -90.5 -138.5t-64.5 -94.5q0 -15 2 -17q2 -1 13 -1q11 13 25.5 30.5t32.5 40.5q37 46 54 69zM349 302q17 -5 17 -23q0 -24 -32 -71q-25 -35 -37 -47.5t-16 -14.5q-2 5 -4.5 19t-2.5 25q0 7 0.5 11.5t1.5 8.5q7 28 30 60t43 32z" />
    <glyph glyph-name="c" unicode="c" horiz-adv-x="409" 
d="M-41 163q0 -1 -4.5 -8t-4.5 -11t3 -8q3 -3 6 -3q5 0 10.5 4.5t7.5 7.5q7 3 25 21q18 19 23 19q-20 -42 -20 -80q0 -45 29 -74.5t98 -33.5q32 -1 69 12.5t71.5 35.5t64 49t46.5 53l3.5 8t3.5 12q0 3 -3 6l-6 2q-7 0 -13 -6q-51 -53 -98.5 -87.5t-93.5 -37.5
q-32 0 -44.5 8.5t-12.5 32.5q0 20 31 81t69 115q37 52 59 52q4 0 9 -4q0 -2 -3.5 -8t-7 -14t-6 -16.5t-1.5 -15.5q1 -18 17 -31.5t36 -13.5q18 0 32.5 13.5t18.5 42.5q0 38 -19.5 62.5t-68.5 24.5q-52 0 -98.5 -19t-86.5 -50q-20 -16 -36 -29.5t-28 -26.5t-31.5 -34
t-45.5 -51z" />
    <glyph glyph-name="d" unicode="d" horiz-adv-x="544" 
d="M513 174l2 -2q0 -2 -5.5 -3t-9.5 -1q-37 -35 -59.5 -57t-32.5 -31q-20 -17 -30 -17q-2 0 -4 2q-3 1 -3 8q0 9 8 27.5t19.5 40.5t24.5 44t22 39q5 9 20.5 34.5t41.5 68.5q52 85 90 150q39 64 63.5 106t29.5 52h-119l-193 -329q-10 26 -19 39t-30 24q-17 10 -49 10
q-35 0 -79.5 -17t-92.5 -54q-20 -16 -37 -29t-30 -24q-26 -23 -42 -42q-8 -10 -20.5 -23.5t-28.5 -31.5q-2 -3 -5.5 -9t-3.5 -10q0 -6 6 -7q11 0 19 7l61 53q-27 -66 -27 -101q0 -31 18 -53q32 -38 83 -38q31 0 55 15q18 11 30.5 19.5t19.5 13.5t24 19.5t44 37.5
q-7 -24 -7 -47q0 -57 54 -57q64 4 129 69q31 33 45 48q14 18 27 40q-1 0 -4 6zM310 330q9 0 17 -10t8 -28q0 -47 -60 -122q-54 -68 -86.5 -95t-51.5 -27q-8 0 -12 3q-10 4 -10 20q0 25 22 68q11 22 24 42.5t27 39.5q40 55 66 81t56 28z" />
    <glyph glyph-name="e" unicode="e" horiz-adv-x="424" 
d="M-35 170q0 -1 -7.5 -10.5t-7.5 -15.5q1 -9 16 -9q6 4 16 11.5t20 14.5t18.5 12.5t11.5 6.5l-9 -18q-8 -15 -10 -27q0 -135 143 -135q27 2 54 8.5t55.5 21.5t59.5 39.5t66 62.5q4 4 10.5 12.5t6.5 14.5q0 10 -17 13q-2 0 -32 -31q-29 -31 -59 -51q-17 -11 -35.5 -20
t-37 -15t-34.5 -9.5t-28 -3.5q-43 1 -43 40q0 16 5.5 30t8.5 21q55 4 100.5 19.5t78 38t50 51.5t17.5 62q0 68 -103 68q-50 0 -100 -28t-91 -63t-123 -111zM255 310q23 29 42 29q13 0 21 -12q7 -8 7 -20q2 -18 -16 -42t-45 -45t-57 -35.5t-52 -12.5q8 24 26 51q9 13 20 26.5
t24 27.5q25 28 30 33z" />
    <glyph glyph-name="f" unicode="f" horiz-adv-x="400" 
d="M324 541q-48 -58 -91 -132q-20 -35 -35 -62t-23 -44q-71 -15 -123 -52t-80 -69.5t-37 -46.5q-3 -9 -3 -13q0 -5 4 -5q2 0 9 4t11 5q11 14 29.5 32.5t42.5 37t52 35.5t58 28q-2 -21 -59 -127q-13 0 -35.5 -4.5t-32.5 -19.5q-8 -10 -8 -21q0 -16 8.5 -31t13.5 -23
q-27 -46 -60 -99t-66 -107t-50.5 -84t-23.5 -43h122q26 57 50 101.5t52 90.5q28 45 42.5 68t23.5 40q110 3 249 136q18 19 18 32q0 7 -8 10q-8 0 -21 -12q-137 -121 -209 -122q8 23 19.5 49t27.5 59q17 34 36.5 73.5t36.5 79.5q53 25 105 56t93 67.5t66 76.5t25 83
q0 21 -16.5 38t-64.5 17q-30 -3 -71.5 -30t-76.5 -72zM303 369q6 22 18.5 49t28 54t33.5 52.5t35.5 44.5t33 30t26.5 10q6 0 10 -2q3 -5 3 -14q1 -14 -8 -34t-25 -43.5t-36 -47.5t-41.5 -44t-41.5 -35t-36 -20z" />
    <glyph glyph-name="g" unicode="g" horiz-adv-x="574" 
d="M193 -16q-51 -12 -117 -37t-127 -65q-53 -36 -70 -67t-17 -61q0 -12 -1 -15q1 -16 12 -30.5t28 -26t38 -18.5t42 -7q19 0 36 6q23 7 52.5 23.5t60.5 40.5t60.5 56t52.5 72q24 45 44.5 81.5t31.5 55.5q32 13 56.5 23.5t40.5 18.5t30.5 18t28.5 23q67 57 67 77q0 6 -6 11
q-3 2 -10 -4t-18 -16t-24.5 -22.5t-29.5 -23.5q-19 -14 -31.5 -23.5t-19.5 -13.5q-12 -7 -42 -10l183 313h-118q-2 -3 -6 -9.5t-8.5 -14t-9.5 -14.5t-9 -13q-4 15 -12 28t-18.5 23.5t-22.5 16.5t-24 6q-45 0 -93.5 -15.5t-90.5 -46.5q-45 -32 -111 -93q-32 -31 -50 -48.5
t-20 -22.5q-14 -17 -14 -28q0 -8 7 -8q6 0 17 9q8 8 31 26.5t50 37.5q-9 -13 -15.5 -21t-11 -14t-7 -12.5t-4.5 -16.5q-4 -15 -4 -34q0 -71 77 -97q16 -4 27 -4q48 0 118 47q-25 -61 -29 -61zM342 324q10 -7 10 -23t-8.5 -36t-21.5 -42t-28.5 -43.5t-29.5 -40.5
q-88 -94 -125 -94q-7 0 -14 5q-4 1 -4 11q0 13 9 35t22 47t27 48.5t25 38.5l23 30q22 30 45 51.5t46 21.5q12 0 24 -9zM-54 -294q-15 9 -15 26q0 38 68 104q43 45 73 62q15 8 37.5 17.5t53.5 20.5q-64 -126 -111.5 -182t-79.5 -56q-12 0 -26 8z" />
    <glyph glyph-name="h" unicode="h" horiz-adv-x="576" 
d="M-49 -3h130q8 12 17.5 27.5t22.5 35.5q25 39 37 53q17 18 31.5 33t28 29.5t28 28.5t31.5 31q17 16 33.5 31t31 26.5t25.5 18t17 6.5q3 0 5 -2q4 -4 4 -10q0 -12 -14 -35q-7 -11 -17 -26t-24 -35q-14 -19 -22 -30t-10 -14q-23 -35 -23 -77q0 -25 8 -45.5t22 -31.5
q18 -12 41 -12q19 0 40 8.5t39 21.5q30 22 52 46q11 13 26.5 31t35.5 42q0 14 -1 17q-12 0 -19 -5q-8 -7 -17 -16.5l-18 -19t-17.5 -18t-14.5 -12.5q-23 -22 -41.5 -36t-30.5 -14q-6 0 -9 3q-2 2 -2 6q0 12 14 37q8 13 19.5 31.5t27.5 43.5t25.5 42t13.5 25q11 24 11 54
q0 34 -16.5 57t-48.5 23q-22 0 -49 -15t-56 -37q-14 -11 -29.5 -24t-32.5 -28q-35 -30 -41 -35l228 411h-107q-15 -21 -51 -81q-36 -59 -64.5 -100.5t-61.5 -76.5q-23 -24 -42 -43.5t-33 -35.5q-14 -15 -33 -35t-43 -46q-24 -25 -38 -39.5t-19 -19.5q-8 -10 -10 -16.5
t-2 -9.5q7 0 12 1.5t7 1.5l173 157q-14 -22 -32 -51t-40 -65q-22 -35 -40.5 -66.5t-34.5 -58.5q-33 -54 -33 -57z" />
    <glyph glyph-name="i" unicode="i" horiz-adv-x="291" 
d="M-60 145q-3 -5 -3 -10q0 -10 14 -10q5 4 14.5 12t23.5 21q28 25 42 36q6 3 8 3t2 -2q-18 -24 -29 -59t-11 -65q0 -65 48 -72q30 0 58.5 11.5t55 31t51 46t47.5 56.5q1 5 1.5 8t0.5 4q0 5 -6 7q-4 0 -10 -2q-8 -6 -19 -16.5t-27 -24.5q-30 -28 -52.5 -44.5t-41.5 -21.5
q-3 7 -3 16q0 18 9 39.5t28.5 53.5t49.5 78t71 112h-127q-34 -34 -63 -65.5t-52 -56.5t-45 -49t-35 -37zM206 461q9 -27 43 -27q19 0 35 10q19 10 30.5 28.5t11.5 36.5q0 9 -2 15q-9 27 -45 27q-20 0 -36 -9q-18 -10 -29 -28t-11 -36q0 -10 3 -17z" />
    <glyph glyph-name="j" unicode="j" horiz-adv-x="360" 
d="M305 476q11 -26 45 -26q17 0 34 9q42 23 42 66q0 2 -0.5 6t-1.5 9q-8 25 -45 25q-19 0 -35 -9q-18 -9 -29.5 -27.5t-11.5 -37.5q0 -9 2 -15zM155 55l186 303q-39 13 -68 13q-19 0 -43 -5.5t-60 -19.5q-33 -11 -87 -54q-26 -22 -53 -46.5t-53 -52.5q-2 -4 -7 -10.5
t-13 -16.5q-16 -17 -16 -24q0 -4 4 -7q2 -2 6 -2q6 0 13 4t13.5 9.5t11 11.5t6.5 11q21 24 39.5 44t45.5 42q17 14 30.5 24t22.5 16q20 14 50 21l-169 -296q-31 -9 -54.5 -17t-43 -20t-36.5 -30.5t-35 -47.5q-51 -84 -51 -130q0 -37 30 -59q19 -14 41 -14q25 0 52.5 16.5
t52.5 40.5q24 24 43 48.5t25 34.5q32 49 87 172q36 4 62 13t58 31q39 27 56 44q18 18 44 56q4 7 4 13q0 7 -7 11q-7 0 -14.5 -7.5t-11.5 -13.5q-33 -48 -82 -73q-52 -26 -79 -33zM-13 -29q-17 -48 -48 -108q-25 -55 -45.5 -89.5t-38.5 -34.5q-1 0 -7 2q-7 4 -7 17
q0 20 12.5 50t32.5 64q14 20 26 37.5t23.5 31t24 21.5t27.5 9z" />
    <glyph glyph-name="k" unicode="k" horiz-adv-x="549" 
d="M362 635q-7 -7 -24 -24.5t-43 -49.5q-27 -35 -60 -74.5t-71 -85.5q-77 -90 -138 -159q-60 -69 -84 -96q-3 -3 -7.5 -9t-4.5 -12q0 -5 4 -9q2 -2 6 -2t8.5 3.5t6.5 5.5l211 219q-19 -30 -35.5 -58.5t-39.5 -67.5q-12 -19 -25 -40t-29 -47t-36 -57.5t-46 -71.5h122
q16 25 31 49.5t30 50.5t25 43t17 28t10.5 16t6.5 7q2 0 8 -4.5t16 -4.5q15 0 35 6q14 0 14 -13q2 -7 -5 -24t-16 -36t-17 -35.5t-8 -23.5q0 -29 14.5 -50.5t52.5 -21.5q23 0 55 14t65 36.5t63 50.5t50 57q0 -1 3.5 4.5t3.5 10.5t-6 10q-6 0 -13.5 -6.5t-12.5 -8.5
q-15 -14 -35 -33.5t-42.5 -37.5t-44.5 -30.5t-40 -12.5l-2 8q0 8 12 31t17 33.5t5 24.5q0 35 -14 52.5t-24 23.5q0 7 16 22t21 21q31 50 58 58q-5 -17 -5 -24q0 -19 12 -30.5t30 -11.5q10 0 22 5q15 6 24.5 22t9.5 35q0 34 -26 51q-15 9 -32 9q-54 0 -127 -97
q-6 -9 -17 -16.5t-23.5 -13.5t-25 -9.5t-21.5 -3.5q-15 0 -15 9q0 3 3 8l239 387h-112z" />
    <glyph glyph-name="l" unicode="l" horiz-adv-x="349" 
d="M190 215l264 423h-117q0 -12 -66 -103q-32 -46 -62 -84.5t-56 -70.5q-22 -23 -49.5 -53t-56.5 -63q-28 -32 -50 -55.5t-50 -53.5q-11 -9 -11 -25q3 -3 10 -3q5 0 10 3l170 165q-38 -59 -54 -90q-17 -32 -26.5 -65t-9.5 -72q0 -28 25 -48t73 -20q25 0 62 25q40 26 77 63
q40 39 56 63v14q-1 4 -17 4q-21 -20 -45.5 -42t-47 -40t-41.5 -30t-29 -12q-5 5 -5 22q0 27 12 68.5t34 79.5z" />
    <glyph glyph-name="m" unicode="m" horiz-adv-x="971" 
d="M296 -2l136 2q9 11 24.5 28.5t38.5 42.5q45 51 100 109q28 29 54.5 55.5t52.5 49.5q52 46 73 46q5 -5 5 -13q0 -15 -14 -37q-7 -10 -19.5 -27.5t-30.5 -42.5q-35 -49 -53 -84.5t-18 -69.5q0 -11 5 -24t15 -24t24.5 -18.5t32.5 -7.5q12 0 26 3q49 13 90.5 50.5t92.5 94.5
q5 5 11.5 14.5t6.5 18.5q-5 3 -6 3q-9 0 -28 -19q-25 -21 -50 -42.5t-49 -41.5q-23 -19 -36 -27.5t-21 -9.5q-4 4 -4 11q0 15 42 80q22 32 36.5 55t22.5 37q15 25 23 64q3 16 3 33q0 34 -18 57.5t-57 24.5q-56 0 -132 -64q-75 -63 -136 -130q3 7 7.5 18t9.5 23t9 23.5
t7 20.5q7 34 7 50q0 52 -62 52q-53 0 -126 -49q-73 -50 -137 -126q14 45 21 73t7 48q0 28 -17 42t-60 15q-20 1 -53 -20.5t-69.5 -54.5t-71 -71.5t-56.5 -72.5q-4 -4 -10.5 -12.5t-6.5 -16.5q0 -7 6 -10q10 0 19 8.5t13 14.5q25 31 53.5 61t54.5 53.5t46.5 38t30.5 14.5
q5 -8 5 -16q0 -19 -16 -48t-53 -87q-19 -29 -33 -51.5t-24 -39.5t-20 -36t-20 -42h125q24 31 59 73t83 97q28 33 57 60.5t54.5 48t46 32.5t33.5 13q5 0 8 -3q2 -2 2 -6q0 -19 -38 -90q-19 -35 -38 -68t-39 -65q-19 -31 -33 -54t-24 -37z" />
    <glyph glyph-name="n" unicode="n" horiz-adv-x="645" 
d="M-55 130q1 -4 7 -4q8 0 17.5 9t14.5 15q138 169 177 169q3 -6 3 -14q0 -17 -13 -43t-49 -82q-17 -28 -32 -51t-26 -43q-24 -41 -44 -86h125q8 11 13.5 18t8.5 11q7 9 26 35q21 28 43.5 56t43.5 53q63 71 121 120q59 52 82 52q3 -5 3 -12q0 -19 -44 -83q-22 -31 -39 -56.5
t-28 -45.5q-22 -38 -22 -82q1 -27 21 -50.5t55 -23.5q12 0 26 3q26 7 51 23t48.5 36.5t44 43t38.5 42.5q2 2 5 6.5t3 9.5q0 1 -2 5t-7 4q-6 0 -14 -8q-14 -13 -31 -27t-36 -31q-38 -33 -57.5 -46.5t-32.5 -15.5q-4 4 -4 11q0 13 10.5 31.5t40.5 61.5q30 45 48.5 78.5
t23.5 62.5q3 16 3 31q0 34 -17 54t-57 20q-96 0 -249 -178q11 39 19 68.5t8 55.5q0 27 -14.5 40.5t-51.5 13.5q-38 -1 -112 -71q-74 -68 -135 -147q-4 -4 -10 -13.5t-6 -17.5q0 -5 3 -8z" />
    <glyph glyph-name="o" unicode="o" horiz-adv-x="479" 
d="M-55 145q0 -14 9 -14q6 0 11 4q65 74 76 74q0 -4 -7 -19q-7 -17 -11.5 -32t-4.5 -33q5 -50 32 -88t94 -38q16 0 54 9.5t84 38.5q12 -6 26 -6q40 0 84 41q45 40 74 85q0 2 -2 5t-7 3q-1 0 -13 -5q-9 -5 -29 -27q-21 -22 -36 -35t-30 -18q-1 0 -7.5 2.5t-9.5 2.5
q20 27 35 45.5t25.5 35.5t16 34t6.5 41q0 124 -106 124q-54 1 -108.5 -21t-103.5 -56t-88.5 -75t-63.5 -78zM225 250q68 83 105 83q22 0 33 -27q6 -12 6 -32q0 -19 -4.5 -33t-7.5 -21q-5 -9 -12 -21.5t-14.5 -25t-15.5 -24t-14 -17.5t-14 -6h-10q-12 0 -21 -11
q-6 -7 -6.5 -21.5t-4.5 -18.5q-17 -19 -32.5 -26.5t-43.5 -13.5q-25 16 -25 49t23 78t58 88z" />
    <glyph glyph-name="p" unicode="p" horiz-adv-x="574" 
d="M-75 -245q79 135 138 224t98 134q16 19 47 51.5t71 70.5q42 38 69.5 60t39.5 22q3 0 5 -2q4 -4 4 -10q0 -12 -13 -34q-7 -11 -17.5 -26l-24.5 -35q-29 -39 -33 -45q-22 -32 -22 -77q0 -25 8 -45.5t22 -31.5q18 -12 40 -12q18 0 39.5 8.5t39.5 21.5q14 11 27.5 22t24.5 23
q11 13 26.5 31t35.5 43q3 3 3 8t-4 9q-12 0 -19 -5q-8 -7 -16.5 -16.5t-17.5 -19t-17.5 -18t-14.5 -12.5q-24 -22 -42 -36t-31 -14q-5 0 -8 3q-2 2 -2 6q0 12 14 38q8 13 19.5 31.5t27.5 43.5q33 51 39 66q11 30 11 53q0 34 -16.5 57.5t-48.5 23.5q-22 0 -50 -15.5
t-57 -37.5q-14 -11 -29 -23.5t-32 -27.5q-35 -30 -41 -35l184 316h-108q-19 -25 -31.5 -42.5t-24.5 -33.5q-11 -16 -31.5 -39.5t-43.5 -47.5q-21 -22 -45 -47t-56 -61q-32 -35 -57.5 -61.5t-47.5 -49.5q-17 -26 -14 -26q18 0 20 1l172 159q-29 -47 -68 -109t-90 -141
q-42 -64 -87 -136.5t-95 -153.5h130z" />
    <glyph glyph-name="q" unicode="q" horiz-adv-x="530" 
d="M302 372q-34 0 -82.5 -13t-91.5 -44q-24 -16 -50.5 -39.5t-50.5 -46.5q-12 -11 -24 -22.5t-23 -23.5q-12 -11 -18.5 -17.5l-7.5 -7.5q-14 -14 -14 -26q0 -8 7 -8q4 0 18 8q7 8 16.5 18t22.5 22q25 25 41 25q-29 -35 -37 -61q-3 -17 -3 -32q0 -76 69 -101q9 -3 20 -3
q25 0 52.5 14t67.5 40q-20 -25 -39 -52t-37 -56q-36 -58 -59 -103q-15 -32 -15 -64q0 -30 10 -53t26 -30q15 -6 38 -6q86 0 166 105q56 79 56 162q0 25 -2.5 41.5t-5.5 30.5q16 9 29 16.5t25 14.5t23 15.5t25 19.5q26 22 41 37t15 25q0 6 -7 10q-8 3 -26 -13t-43 -35
q-14 -11 -23.5 -18.5t-14.5 -11.5q-9 -6 -20.5 -10.5t-29.5 -5.5l167 276q-42 1 -68 1h-42q-6 -7 -15 -20.5t-21 -29.5q-9 29 -25.5 49.5t-39.5 22.5zM322 315q10 -7 10 -23q0 -26 -24 -65t-56 -82q-30 -32 -69 -63q-39 -30 -59 -30q-4 0 -7.5 3t-3.5 10q0 11 8.5 31.5
t21 44t27 47t25.5 40.5q1 1 6.5 7.5t15.5 20.5q20 28 41 47.5t42 19.5q9 0 22 -8zM329 -12q0 -18 -3 -37.5t-7.5 -38t-11 -36t-13.5 -30.5q-9 -17 -21 -34.5t-26.5 -33.5t-30.5 -28.5t-31 -19.5q-14 -6 -21 -6q-15 0 -15 19q0 6 2 16q1 9 74 122q10 16 21.5 34.5t25.5 41.5
q28 43 42 66q4 -11 9.5 -16.5t5.5 -18.5z" />
    <glyph glyph-name="r" unicode="r" horiz-adv-x="490" 
d="M-43 130q1 -4 7 -4q8 0 17.5 9t14.5 15q136 169 177 169q3 -6 3 -14q0 -17 -13.5 -43t-48.5 -82q-17 -28 -32 -51t-26 -43q-24 -41 -44 -86h125q8 11 13 18t8 11q6 6 27 35q21 28 43 56t43 53q31 35 54 61t39 45t37.5 35.5t48.5 32.5q-17 -57 39 -63q57 -6 67 49t-76 56
q-71 -2 -224 -180q11 39 19 68.5t8 55.5q0 27 -15 40.5t-51 13.5q-38 -1 -112 -71q-74 -68 -135 -147q-4 -4 -10 -13.5t-6 -17.5q0 -5 3 -8z" />
    <glyph glyph-name="s" unicode="s" horiz-adv-x="383" 
d="M177 403q-8 -7 -16.5 -16.5t-17.5 -19.5t-17 -19.5t-15 -16.5q-22 -23 -40 -42.5t-34 -36.5q-30 -35 -57 -66q-14 -16 -21 -23.5l-7 -7.5q-10 -10 -10 -19q0 -8 8 -8q5 0 11 6q17 14 46 43t60 62q32 34 55.5 58.5t45.5 45.5q15 -6 15 -106q0 -33 -0.5 -50.5t-2.5 -41.5
q-3 -28 -15.5 -49t-36.5 -42q-10 -10 -31 -10q-9 0 -16.5 1.5t-10.5 2.5q10 7 25.5 23t15.5 38q0 12 -5 20q-15 31 -46 31q-28 0 -47 -22q-15 -17 -15 -41q0 -27 17 -52q34 -45 110 -45q73 1 135.5 43.5t110.5 115.5q0 1 2 7t2 10q0 9 -4 10q-14 0 -24 -12q-5 -5 -30 -36
t-32 -31q10 37 10 71t-10 58.5t-31 54.5q-9 12 -15 20.5t-10 13.5l-13.5 22.5t-13.5 28.5q7 5 14.5 13t17.5 19q20 23 20 42q0 13 -14 22q-7 4 -14 4q-21 0 -33 -28q-6 -14 -10 -25t-6 -20z" />
    <glyph glyph-name="t" unicode="t" horiz-adv-x="355" 
d="M260 493h-57q-12 -12 -14 -19q-6 -11 -6 -19q0 -7 38 -7q-13 -31 -33 -52q-9 -10 -34 -34.5t-67 -64.5l-37 -37t-32.5 -34t-31 -34.5t-32.5 -38.5q-2 -8 -2 -7q0 -9 14 -11q6 0 11 3q7 7 17 18t24 27q29 31 58.5 60.5t57.5 54.5q-25 -41 -42.5 -71t-29 -54.5t-16.5 -45
t-5 -41.5q0 -39 21 -62.5t51 -23.5q50 5 109.5 47t120.5 114q6 10 6 20q0 8 -7 8q-65 -63 -126 -107q-62 -44 -81 -44q-3 0 -5 2q-3 3 -3 9q0 25 35 87.5t98 165.5q13 20 24 39t22 36q21 35 32 51.5t21 25.5q5 0 20.5 0.5t59.5 1.5q6 5 10.5 14.5t4.5 16.5q0 4 -2 6
q-10 2 -33 2q-22 0 -37 1q16 29 35 60.5t39 73.5h-106q-23 -35 -39.5 -59t-25.5 -38q-8 -14 -14.5 -23.5t-10.5 -16.5z" />
    <glyph glyph-name="u" unicode="u" horiz-adv-x="561" 
d="M141 364q-6 -6 -14 -14.5t-17 -18.5t-18 -19.5t-16 -17.5t-19 -22t-31 -34t-37.5 -39.5t-37.5 -39.5q0 -20 13 -20q15 12 38.5 36.5t43.5 45.5q3 0 6 -1q1 -1 1 -7q-48 -83 -48 -139q0 -60 58 -76q43 0 101 41q58 42 109 97q-15 -47 -15 -70q0 -68 88 -68q26 0 66 31
q20 16 39 33t38 37q38 41 45 55q0 22 -12 22q-24 -23 -49 -47t-46.5 -43t-39 -31t-26.5 -10q-2 10 -2 13q0 9 3 19t9.5 23t18 30.5t28.5 43.5q34 51 63.5 97.5t52.5 91.5h-134q-41 -54 -73 -95.5t-56 -71.5q-23 -29 -46 -54.5t-46 -47.5q-43 -43 -69 -43q0 37 22 78
q22 43 72 126l72 108q-43 0 -78 0.5t-57 0.5z" />
    <glyph glyph-name="v" unicode="v" horiz-adv-x="568" 
d="M190 43q-9 4 -9 15q0 14 22 48q11 17 21.5 34t21.5 33q21 33 37.5 68t16.5 65q0 41 -32 67q-17 14 -38 14q-61 0 -144 -80q-41 -40 -76.5 -80.5t-67.5 -82.5q0 -9 11 -9q5 0 13 3q16 14 42.5 42t59.5 61t61.5 56t56.5 36q4 -4 4 -12q0 -5 -3 -12q-116 -143 -116 -230
q0 -51 46 -72q18 -7 47 -7q46 0 99 21t94 56q21 -7 47 -7q78 0 142 82q5 2 5 9q0 2 -2.5 6t-6.5 4t-15 -11q-74 -57 -107 -57q-5 0 -13 2t-14 3q22 26 38 45.5t27 32.5q21 26 37.5 60t16.5 68q0 72 -45 77q-36 0 -71 -35q-35 -36 -56 -79q-23 -44 -24 -66q-1 -5 -1 -21
q0 -29 7 -52.5t11 -33.5q-12 -17 -29.5 -28.5t-37 -18.5t-39 -10.5t-37.5 -3.5zM441 306q17 -3 17 -24q0 -28 -34 -77q-25 -36 -39 -50t-18 -16q-2 6 -4.5 20.5t-2.5 26.5q0 8 0.5 13t1.5 9q7 30 32 64q24 34 47 34z" />
    <glyph glyph-name="w" unicode="w" horiz-adv-x="711" 
d="M465 209q-1 -8 -1.5 -13.5t-0.5 -9.5q0 -25 6.5 -47t10.5 -31q-20 -28 -63 -49q-41 -21 -67 -21q-9 0 -13 3q-8 5 -8 16q0 7 3 16.5t10 23.5t19.5 35.5t30.5 52.5q19 32 32.5 56t23.5 41t20 37t21 43h-114q-46 -75 -91 -134.5t-82.5 -100t-65.5 -62t-40 -21.5q-3 0 -5 2
q-3 4 -3 12q0 18 16 49t39 69q12 19 26.5 42.5t31.5 51.5q34 57 51 93h-126q-37 -51 -82 -103.5t-102 -115.5q-6 -6 -6 -12q0 -4 2 -6q4 -4 8 -4t6.5 2.5l5.5 5.5q23 22 44.5 44.5t33.5 35.5q6 0 6 -4t-4 -8q-44 -68 -44 -124q4 -35 19 -55.5t56 -20.5q17 1 34.5 10t40.5 27
q11 10 27.5 24.5t37.5 34.5t34.5 32.5t18.5 17.5q-11 -36 -11 -61q0 -42 24.5 -63.5t69.5 -21.5q17 2 37.5 9t43.5 20q49 26 77 57q24 -10 49 -10q22 0 41 8.5t35 20t28 24.5t21 22q9 7 9 17q0 3 -2 5q-3 3 -6 3q-5 0 -8.5 -4t-9.5 -9q-65 -50 -95 -50q-6 0 -14 2t-13 2
q35 39 58 67q22 28 36.5 59t14.5 64q0 12 -2 24.5t-6.5 22.5t-13 16.5t-20.5 7.5q-26 2 -50.5 -18t-43.5 -48t-31.5 -57t-14.5 -44zM581 298q16 -6 16 -24q0 -27 -31 -70q-24 -34 -37 -47t-18 -15q-1 4 -3 17t-2 23q0 14 2 24q6 28 29 60t44 32z" />
    <glyph glyph-name="x" unicode="x" horiz-adv-x="481" 
d="M-39 164q-1 -2 -5.5 -9t-4.5 -9q0 -4 8 -9q8 0 16.5 7t10.5 8q46 60 105 116q61 57 85 57l6 -2q6 -8 6 -17t-6 -37q-3 -14 -5 -25t-3 -19q-1 -6 -2 -16.5l-2 -21t-1.5 -20.5t-0.5 -16q-11 -12 -19.5 -21t-15.5 -16q-12 -13 -25.5 -26t-18.5 -18q-8 17 -27 29t-38 12
q-32 0 -44 -30q-4 -8 -4 -22q0 -24 15 -42t44 -18q16 0 32.5 9t33 24t34 33.5t35.5 37.5q4 -42 23.5 -72t62.5 -30q48 0 96.5 34t108.5 120q1 2 3.5 5.5t2.5 7.5t-4 7q-8 0 -16 -5q-40 -49 -80.5 -83t-72.5 -42q-8 0 -8 16q0 4 1 15.5t3 30.5q2 20 3 36t1 30q0 7 -0.5 16.5
t-1.5 22.5q4 5 10.5 13.5t16.5 21.5q19 25 34 40.5t31 25.5q8 -21 26.5 -34t38.5 -13q21 0 34 16q10 11 10 30q0 18 -10 33.5t-26 20.5q-20 6 -31 6q-23 0 -46 -19q-24 -18 -84 -78q-20 98 -79 98q-29 0 -63.5 -19.5t-69.5 -49.5t-67 -67t-56 -73z" />
    <glyph glyph-name="y" unicode="y" horiz-adv-x="597" 
d="M235 349q-16 14 -37 14q-38 0 -90 -41q-51 -42 -90 -87t-73 -90q0 -6 6 -10.5t14 -4.5q21 18 43.5 44.5t46.5 53t49.5 49t51.5 33.5q6 -5 6 -11q0 -4 -5 -12q-110 -134 -110 -217q0 -51 45 -70q10 -6 26 -6q28 0 63.5 16t71.5 50q-3 -12 -13.5 -31.5t-16.5 -31.5
q-9 -4 -26 -10.5t-42 -15.5q-25 -10 -43 -17t-31 -12q-25 -11 -47 -27q-136 -88 -136 -160q0 -29 21 -51q28 -30 81 -30q59 0 124 41q33 22 63.5 51.5t57.5 65t49 74.5t38 80q29 10 57 18.5t58 25t63 45.5t72 80q-4 0 -8.5 7t-8.5 7q-28 -25 -50.5 -46.5t-44 -37.5
t-43 -26.5t-47.5 -12.5q27 51 70 125.5t103 176.5q-42 1 -74 1h-44q-18 -18 -49 -68q-16 -25 -31.5 -47t-29.5 -42q-28 -38 -70 -79t-97 -72q-8 5 -8 13q0 16 37 71q19 27 33.5 49t24.5 41t15 36.5t5 35.5q0 36 -30 62zM-35 -283q-12 12 -12 29q0 24 22.5 53t57 56t77 50
t81.5 35q-5 -7 -15 -24t-26 -43q-32 -54 -54 -87t-49 -58t-51 -25q-17 0 -31 14z" />
    <glyph glyph-name="z" unicode="z" horiz-adv-x="469" 
d="M205 118q7 -13 7 -29q0 -21 -6 -29q-11 -7 -32 -16.5t-52 -21.5q-31 -11 -55 -21.5t-42 -19.5q-36 -18 -64 -49.5t-29 -76.5q0 -33 23.5 -57.5t72.5 -24.5q15 0 20 1q51 3 97 31t81 68.5t55 86.5t19 87q2 13 16.5 20.5t37.5 18.5t52 31.5t59 58.5q1 1 2.5 3.5t1.5 4.5
q0 3 -4 6q-2 2 -4 2t-4.5 -2t-3.5 -3q-7 -5 -18 -13t-27 -21q-30 -24 -57 -39t-60 -23q-2 5 -7.5 16.5t-9.5 15.5q-5 6 -14 13t-13 10q61 85 105 123l16 8t20.5 11t21 13t17.5 13q10 9 15.5 24t5.5 28q0 21 -15 29q-12 5 -18 5q-34 0 -62 -45q-27 -45 -39 -75q-4 -7 -16 -16
t-31 -9q-13 0 -22 4q-12 4 -12 15q0 8 10 32q11 27 11 42q0 27 -25 45q-8 6 -20 6q-27 0 -64 -24q-21 -15 -39 -29.5t-32 -28.5q-29 -29 -49 -56q-10 -14 -29 -40t-47 -66q0 -18 2 -20q6 0 10 0.5t6 0.5q8 11 21.5 28t31.5 39q18 23 37.5 45t39.5 45q40 45 54 45q2 0 4 -3
q1 -5 1.5 -8t0.5 -4q0 -5 -2 -13t-4 -17t-4 -17t-2 -14q0 -13 8 -26q14 -20 52 -20q25 0 60 11q-5 -8 -12.5 -17.5t-15.5 -19t-16 -18t-13 -12.5q-15 5 -62 5q-81 0 -81 -40q1 -13 18 -19.5t42 -6.5q22 0 44 5t36 14zM183 1q-2 -25 -29 -67q-14 -23 -30.5 -43t-34.5 -36
t-37.5 -25t-37.5 -9q-10 0 -20 3q-19 4 -19 22q0 9 4 16q15 25 37.5 47t49.5 40t57 31t60 21z" />
    <glyph glyph-name="braceleft" unicode="{" horiz-adv-x="152" 
d="M-53 223q1 -3 14.5 -12t26.5 -19t23.5 -27t10.5 -38t-7 -41q-3 -10 -5 -18t-4 -13q-1 -5 -1.5 -16.5t-0.5 -29.5q-2 -27 12.5 -48t35.5 -35.5t42.5 -22t35.5 -7.5q10 0 11 4q0 3 -4.5 7t-11 8.5t-13.5 9.5t-11 9q-8 8 -17 26t-9 44q0 38 3 65t3 46q0 15 -7.5 30.5
t-20.5 30.5t-30 27.5t-36 21.5q39 17 66 47t27 62q0 18 -3 44.5t-3 65.5q0 25 9 43.5t17 25.5q4 3 11 8t13.5 10t11 9t4.5 6q-1 4 -11 4q-14 0 -35.5 -7.5t-42.5 -22t-35.5 -35.5t-12.5 -48q0 -30 2 -42.5t7 -27.5t7 -23t2 -25q0 -27 -16 -46t-36 -32t-22 -18z" />
    <glyph glyph-name="bar" unicode="|" horiz-adv-x="145" 
d="M60 -85h34v663h-34v-663z" />
    <glyph glyph-name="braceright" unicode="}" horiz-adv-x="156" 
d="M148 225q-2 4 -22 17q-21 14 -36 32.5t-15 45.5q0 18 6 39q7 22 9 33q3 12 3 46q1 26 -13.5 47t-35.5 36t-43 22.5t-35 7.5q-10 0 -11 -4q0 -2 4.5 -6t11 -9l13 -10t11.5 -8q8 -7 17.5 -24.5t9.5 -44.5q0 -42 -3.5 -70t-3.5 -41q0 -30 26.5 -60.5t66.5 -48.5
q-39 -18 -65.5 -48.5t-27.5 -61.5q0 -18 4 -45.5t4 -64.5q0 -35 -14 -55q-12 -18 -34 -31q-20 -14 -20 -18q1 -4 11 -4q13 0 35.5 7.5t43.5 22t35.5 35.5t13.5 48q0 35 -3 49t-9.5 31.5t-6.5 37.5q0 26 14 45q15 18 36 33q21 14 23 19z" />
    <glyph glyph-name="asciitilde" unicode="~" horiz-adv-x="433" 
d="M390 278q-14 -28 -37 -48.5t-47 -20.5q-13 0 -28 5q-6 2 -18.5 7.5t-31.5 13.5q-37 16 -59 23.5t-41 7.5q-41 0 -66.5 -26.5t-47.5 -66.5l28 -32q23 38 40 55.5t45 17.5q20 0 41 -7.5t49 -21.5q28 -13 48 -20t40 -7q67 0 113 88z" />
    <glyph glyph-name="FL0127" horiz-adv-x="480" 
d="M132 174l-53 -169l150 98l148 -98l-52 171l139 106h-175l-64 174l-58 -176h-172z" />
    <glyph glyph-name="FL0128" horiz-adv-x="590" 
d="M2 427v-378l521 186z" />
    <glyph glyph-name="FL0129" horiz-adv-x="690" 
d="M393 73q-13 13 -33 13q-21 0 -33 -14q-14 -14 -14 -32q0 -19 14 -33t34 -14q18 0 32 13q14 17 14 34t-14 33zM152 73q-14 14 -33 14q-16 0 -33 -14q-14 -16 -14 -33t14 -33q16 -14 33 -14q19 0 33 14t14 33t-14 33zM635 73q-13 13 -33 13q-19 0 -33 -14q-14 -12 -14 -33
q0 -20 13 -33q16 -14 33 -14q20 0 34 14q14 16 14 34q0 19 -14 33z" />
    <glyph glyph-name="quotesinglbase" unicode="&#x201a;" horiz-adv-x="389" 
d="M336 434q-13 5 -31 5q-16 0 -31 -3q-7 -2 -17 -4t-23 -6t-21.5 -5.5t-13.5 -2.5q1 6 9 48q5 22 7.5 36.5t3.5 22.5q3 16 3 35q0 27 -7 45q-11 10 -18 12l-8 2q-19 0 -25 -21q-4 -13 -4 -34q0 -26 12 -77q6 -25 9.5 -42t4.5 -27l-118 21q-23 0 -37 -23q0 -18 20 -29
q5 -1 22 -1q21 0 53 6t60 12l-4 -97l-28 -67l10 -33q11 -83 16.5 -173t5.5 -190h17q-1 25 -1.5 44t-0.5 32q0 162 31 326q-34 67 -34 134q0 19 1 24q5 -1 17 -3.5t32 -7.5q40 -9 61 -9q18 0 31 5q10 10 10 20q0 11 -14 25z" />
    <glyph glyph-name="florin" unicode="&#x192;" horiz-adv-x="389" 
d="M334 436q-31 0 -74 -9q-45 -8 -59 -9l22 160q0 3 -1 8.5t-1 7.5q-13 25 -33 25q-23 -1 -28 -33q11 -58 17.5 -100t8.5 -68q-63 6 -112 21q-18 0 -29 -8.5t-11 -19.5q0 -15 13 -22q15 -4 32 -4q19 0 57 8q35 7 50 9q0 -44 -10 -88t-30 -82q41 -70 41 -149v-15q0 -6 -1 -11
q-63 0 -118 21q-18 0 -27 -7.5t-9 -19.5q0 -19 19 -28q9 0 16 0.5l14 1t15.5 2t21.5 4.5q27 6 39.5 8t28.5 2q-1 -32 -6.5 -65.5t-15.5 -69.5q0 -44 18 -60q8 -2 19 -2q22 16 22 41q-14 82 -24 156q42 -1 115 -20q10 0 28 8q9 6 9 19q0 11 -5.5 19t-13.5 9q-6 1 -10.5 1.5
t-7.5 0.5q-22 0 -61 -10q-20 -5 -33 -7.5t-21 -3.5q0 45 11 89t30 86q-42 66 -42 143v15q0 7 1 12q11 -2 41 -6.5t78 -12.5q25 0 37 27q-11 22 -21 26z" />
    <glyph glyph-name="quotedblbase" unicode="&#x201e;" horiz-adv-x="830" 
d="M272 75q0 -37 21 -61t54 -24q46 0 87 36q41 38 66 85t25 74q0 28 -19.5 48.5t-54.5 20.5q-27 0 -58 -15t-58 -39.5t-45 -57t-18 -67.5zM284 367q6 1 16 3.5t20 5.5t19 7t15 9l-288 -397h82q74 125 130 214t103 160q24 35 39 58t22 33q13 20 13 30q0 4 -3 7q-7 0 -38 -27
q-32 -27 -60.5 -45.5t-54.5 -18.5q-23 0 -34.5 5.5t-11.5 11.5q2 10 2 14q0 22 -21 41t-51 19q-25 1 -57 -14t-60.5 -40.5t-47.5 -58t-17 -66.5q0 -35 23.5 -59.5t57.5 -24.5q21 -2 46.5 11.5t49.5 35t43.5 46.5t28.5 48l13 -2.5t21 -5.5zM522 85q0 -36 21 -60.5t54 -24.5
q46 0 87 36q41 38 66 85t25 74q0 28 -19.5 48.5t-54.5 20.5q-25 1 -56.5 -14t-59.5 -40.5t-46.5 -58t-16.5 -66.5zM451 227q15 0 23 -6t8 -26q1 -17 -11.5 -47.5t-32 -60t-42.5 -50.5t-44 -19q-8 0 -15 3q-15 6 -15 25q0 5 3 17q10 28 24.5 56.5t31 51.5t34.5 38.5t36 17.5z
M183 471q16 0 24 -6.5t8 -25.5q0 -3 -5 -9.5t-5 -12.5t3 -13q-18 -51 -55 -96q-38 -45 -72 -45q-8 0 -15 3q-12 7 -12 26q0 2 0.5 5t1.5 8q9 27 24 55t32 52t35.5 40.5t35.5 18.5zM701 237q15 0 23 -6t8 -26q0 -24 -21 -67q-10 -22 -23 -42t-27 -35t-29 -24t-30 -9
q-8 0 -15 3q-15 7 -15 25q0 5 3 17q10 29 24.5 57.5t31 51.5t34.5 38t36 17z" />
    <glyph glyph-name="ellipsis" unicode="&#x2026;" horiz-adv-x="553" 
d="M130 210q45 -57 76 -110.5t44 -110.5q7 23 15.5 45.5t19.5 43.5q23 44 48 77q25 36 69 90q45 57 71 104t26 96q0 25 -9.5 46.5t-26 37.5t-38.5 24.5t-47 8.5q-24 0 -45 -9.5t-37.5 -25t-28 -36.5t-17.5 -45q-12 49 -46.5 82.5t-85.5 33.5q-47 0 -82 -35q-34 -34 -34 -83
q0 -33 12 -63q13 -32 28 -54q8 -11 19.5 -27t27.5 -36z" />
    <glyph glyph-name="dagger" unicode="&#x2020;" horiz-adv-x="136" 
d="M132 451q5 12 5 26q0 21 -15 50q6 14 18.5 27.5t30.5 29.5q19 16 27.5 23.5t8.5 14.5q0 4 -4 7q-26 -9 -52.5 -29t-48 -43t-36 -46.5t-15.5 -39.5q0 -16 10 -30.5t25 -14.5q17 0 29 8t17 17z" />
    <glyph glyph-name="daggerdbl" unicode="&#x2021;" 
d="M98 603q-5 -13 -5 -26q0 -15 14 -48q-5 -15 -19.5 -29.5t-29.5 -27.5t-26.5 -22.5t-8.5 -14.5q0 -4 4 -8q26 7 53 27.5t49 44.5t35.5 47t13.5 37q0 17 -10 32t-27 15q-16 0 -27.5 -8t-15.5 -19z" />
    <glyph glyph-name="circumflex" unicode="&#x2c6;" horiz-adv-x="254" 
d="M200 451q5 12 5 26q0 17 -14 50q8 20 19 30q6 5 15.5 14t22.5 20q27 22 27 30q0 5 -4 8q-27 -9 -53 -29t-47.5 -43t-35.5 -46.5t-16 -39.5q0 -16 10 -30.5t26 -14.5q32 0 45 25zM81 451q5 12 5 26q0 23 -15 50q6 14 18.5 27.5t30.5 29.5q19 16 27.5 23.5t8.5 14.5
q0 4 -4 7q-27 -9 -53.5 -29t-48 -43t-35.5 -46.5t-15 -39.5q0 -16 10 -30.5t25 -14.5q17 0 29 8t17 17z" />
    <glyph glyph-name="perthousand" unicode="&#x2030;" horiz-adv-x="281" 
d="M239 603q-5 -17 -5 -25q0 -21 15 -49q-4 -14 -18.5 -29t-30 -28t-27 -23t-8.5 -14q0 -4 4 -8q27 7 53.5 27t48.5 44t35.5 47.5t13.5 37.5q0 18 -9.5 32.5t-25.5 14.5q-31 0 -46 -27zM359 603q-5 -12 -5 -25q0 -22 15 -49q-5 -15 -19.5 -29.5t-29.5 -27.5t-26.5 -22.5
t-8.5 -14.5q0 -4 4 -8q25 7 52 27t48.5 44t35.5 47.5t14 37.5q0 19 -9.5 33t-25.5 14q-32 0 -45 -27z" />
    <glyph glyph-name="Scaron" unicode="&#x160;" horiz-adv-x="399" 
d="M35 235q-4 -16 -4 -34q0 -48 31.5 -78t84.5 -30q30 1 60 13t55.5 32.5t44 47.5t25.5 59q4 15 4 34q0 48 -32 78t-86 30q-31 -1 -60.5 -13.5t-54.5 -33.5t-43 -48t-25 -57z" />
    <glyph glyph-name="guilsinglleft" unicode="&#x2039;" horiz-adv-x="399" 
d="M-6 168h294l61 84h-300z" />
    <glyph glyph-name="OE" unicode="&#x152;" horiz-adv-x="579" 
d="M-6 168h497l50 84h-492z" />
    <glyph glyph-name="FL0141" horiz-adv-x="303" 
d="M262 537q-15 0 -15 6v94q0 8 15 8v7h-35l-42 -91l-39 91h-38v-7q11 0 14.5 -1.5t3.5 -9.5v-91q0 -6 -17 -6v-5h41v5q-17 0 -17 6v86l46 -97h6l42 101v-90q0 -6 -16 -6v-5h51v5zM100 652h-103v-34h4q0 26 26 26h12v-101q0 -6 -17 -6v-5h51v5q-15 0 -15 6v101h9
q26 0 26 -26h7v34z" />
    <glyph glyph-name="FL0142" horiz-adv-x="618" 
d="M477 0l-4 15q-28 5 -49.5 11t-39 15t-32.5 22.5t-30 34.5q-20 29 -27 62.5t-8 73.5q11 -19 22 -34.5t22 -26.5q21 -21 49.5 -34.5t55.5 -13.5q26 0 49.5 10t41 27.5t27.5 40.5t10 50q0 24 -8 47t-23 40t-36 27.5t-46 10.5q-17 0 -37 -7.5t-37 -15.5q32 43 32 84
q0 26 -10 48.5t-27.5 39t-40.5 26t-48 9.5q-27 0 -50 -9.5t-40.5 -26t-27.5 -39.5t-10 -49q0 -21 5 -36q3 -6 9.5 -18t16.5 -29q-44 22 -76 22q-24 0 -43.5 -11t-34 -28.5t-22.5 -39.5t-8 -45q0 -27 9.5 -50.5t27 -41t41 -27t50.5 -9.5q23 0 45 8.5t41.5 23t35.5 34.5t26 43
v-20q0 -40 -15.5 -79.5t-43.5 -68.5q-22 -21 -49 -31t-75 -20l-5 -15h387z" />
    <glyph glyph-name="FL0143" horiz-adv-x="501" 
d="M10 277q-4 -16 -5.5 -29t-1.5 -23q0 -70 48 -116q47 -46 129 -46q45 -1 89.5 17.5t82.5 50t65.5 72.5t37.5 86q4 16 5.5 29t1.5 23q0 36 -12.5 66t-35.5 51.5t-56 33.5t-73 12q-43 0 -87.5 -18.5t-82.5 -50t-66 -72.5t-39 -86z" />
    <glyph glyph-name="FL0144" horiz-adv-x="241" 
d="M302 202q12 5 15.5 14.5t3.5 23.5q0 3 -4.5 9.5t-5.5 8.5q-6 13 -18 21l-17 8.5t-11 6.5l58 77h-38l-50 -70h-26q-63 -2 -106 -21q-22 -11 -42.5 -26t-45.5 -38q-31 -31 -48 -62q-20 -46 -20 -69q0 -29 21 -57q24 -24 54 -28q3 -1 22 -1l-52 -81h38l46 79q36 0 70.5 10
t68.5 40q17 15 27 25t14 15t12 18t21 34q0 2 -3.5 5t-6.5 4q-7 0 -12 -5q-5 -9 -11 -15q-1 -1 -11 -15q-5 -6 -10.5 -13t-13.5 -15l-16 -16q-55 -49 -95 -49q-1 0 -7.5 2.5t-9.5 4.5l154 237l28 -12q-14 -6 -14 -25q0 -13 9 -22q7 -7 18 -7q7 0 14 4zM88 182q14 17 31 30
t34 23t32 16t24 9l-134 -211l-8 -14q-25 26 -25 55q0 20 11 40.5t35 51.5z" />
    <glyph glyph-name="quoteleft" unicode="&#x2018;" horiz-adv-x="534" 
d="M368 31l-110 61q40 56 40 111l127 3l4 13l-128 3l-32 146q-1 6 -1.5 10.5t-0.5 6.5q0 43 40 71t87 28q5 0 10.5 -0.5t12.5 -1.5q25 -4 41.5 -20t19.5 -40q0 -18 -7 -36.5t-19 -33.5t-27.5 -25t-31.5 -10q-3 0 -13 2q-18 10 -18 28t19 38t44 30q-3 2 -6 3.5t-8 3.5
q-8 3 -16 3q-24 0 -49 -22q-11 -14 -16 -32q0 -34 18 -49.5t48 -15.5t59.5 14t47.5 37q19 25 19 52q0 36 -34 61q-35 26 -74 27q-5 1 -22 1q-31 0 -67 -10t-68 -26q-62 -45 -62 -112q0 -55 46 -128l-129 -3l-4 -13l138 -3q12 -29 12 -56q0 -30 -15 -55q-22 16 -51.5 26
t-59.5 10q-54 0 -99 -30q-33 -33 -33 -67q21 -36 75 -36q36 0 76 15t73 38q32 -20 91 -46q19 -6 40 -6q66 0 127 58q12 13 17 33q-26 -29 -57 -42.5t-74 -13.5zM168 24q-26 -10 -57 -10q-29 0 -48.5 10.5t-19.5 31.5q0 7 5 22q16 17 27 22q18 8 33 8q61 -7 100 -60
q-26 -18 -40 -24z" />
    <glyph glyph-name="quoteright" unicode="&#x2019;" horiz-adv-x="474" 
d="M420 275q-19 23 -34.5 41.5t-28.5 35t-24.5 31.5t-23.5 31q-24 33 -46 65.5t-53 82.5l-148 -211l-61 -76l53 -63l80 -107l76 -116l153 217z" />
    <glyph glyph-name="quotedblleft" unicode="&#x201c;" horiz-adv-x="557" 
d="M21 0h478v473h-478v-473zM45 450h430v-426h-430v426z" />
    <glyph glyph-name="quotedblright" unicode="&#x201d;" horiz-adv-x="369" 
d="M19 487q0 -12 11 -42q10 -29 18 -45q0 -9 -18 -43q-18 -35 -18 -53q0 -43 24.5 -69.5t72.5 -52.5q24 -12 41.5 -22t28.5 -19t16 -19.5t5 -23.5q0 -17 -20 -33t-48 -16q-22 0 -47 13q14 11 23.5 27t9.5 32q0 27 -36 38q-33 0 -51.5 -20t-18.5 -41q0 -45 39 -70
q41 -26 82 -26q9 0 31 8t45.5 24.5t40.5 41.5t15 59q1 25 -4 40.5t-12 24t-13.5 12.5t-6.5 7q0 6 6.5 12.5t13.5 17t12 26.5t4 40q0 44 -26 70.5t-78 50.5q-26 12 -43.5 21t-27.5 15q-18 12 -18 37q2 28 21 41.5t44 13.5q15 0 27 -4.5t17 -11.5q-3 -6 -7 -21t-4 -27
q0 -19 11 -27q10 -9 29 -9t31.5 14t12.5 43q0 35 -31 57q-32 23 -68 23q-56 0 -96 -21t-40 -93zM201 255q-1 1 -31 10q-14 5 -26 10t-23 10q-21 11 -36 25t-15 31q0 15 15 32q60 -19 91 -38t31 -52q0 -13 -6 -28z" />
    <glyph glyph-name="bullet" unicode="&#x2022;" horiz-adv-x="410" 
d="M-1 539q0 -29 11.5 -55.5t31.5 -46.5t46.5 -32t56.5 -12t56.5 12t46.5 32t31.5 46.5t11.5 55.5q0 30 -11.5 57t-31.5 46.5t-46.5 31t-56.5 11.5t-56.5 -11.5t-46.5 -31t-31.5 -46.5t-11.5 -57zM145 670q55 0 93 -38t38 -93t-38 -93t-93 -38q-53 0 -93 38q-38 38 -38 93
t38 93q40 38 93 38zM142 607q-11 3 -21 3q-22 0 -37 -13.5t-15 -30.5q0 -14 7.5 -23t12.5 -12q-1 -2 -3 -7.5t-3.5 -12t-2.5 -12t-1 -8.5q0 -46 48 -46q27 0 45.5 17t18.5 34q0 26 -25 26q-17 0 -23.5 -5.5t-11.5 -19.5q0 -26 3 -26q2 0 2 2q1 3 2 14.5t5 15.5q7 10 23 10
q6 0 11 -4.5t5 -11.5q0 -12 -15 -28t-37 -16q-12 0 -18.5 5t-6.5 20q0 12 6.5 25.5t10.5 19.5q39 4 74 26q35 21 35 51q0 7 -6 12.5t-16 5.5q-29 0 -63 -22q-20 -12 -32.5 -31t-17.5 -25q-10 10 -10 24q0 17 15 29t41 14zM172 592q20 17 33 17q7 0 11 -4q2 -2 2 -6
q0 -9 -11 -20q-16 -18 -38 -30t-41 -15q11 14 21.5 30t22.5 28z" />
    <glyph glyph-name="endash" unicode="&#x2013;" horiz-adv-x="332" 
d="M154 203q-44 -66 -105 -105q67 -44 111 -100h8q-22 50 -66 104q9 13 26 38t42 63h-16zM266 197l-106 -103l100 -96l13 -2q-22 50 -64 98q20 28 37 53.5t31 49.5h-11z" />
    <glyph glyph-name="emdash" unicode="&#x2014;" horiz-adv-x="410" 
d="M-1 539q0 -29 11.5 -55.5t31.5 -46.5t46.5 -32t56.5 -12t56.5 12t46.5 32t31.5 46.5t11.5 55.5q0 30 -11.5 57t-31.5 46.5t-46.5 31t-56.5 11.5t-56.5 -11.5t-46.5 -31t-31.5 -46.5t-11.5 -57zM145 670q55 0 93 -38t38 -93t-38 -93t-93 -38q-53 0 -93 38q-38 38 -38 93
t38 93q40 38 93 38zM171 543q0 -7 14 -7q0 -5 -11 -25q-5 -10 -7.5 -16.5t-3.5 -8.5q0 -14 4.5 -20.5t18.5 -6.5q15 0 32 15q18 15 18 23q-3 0 -16 -12q-14 -12 -22 -12q-2 0 -2 2l7 24q2 10 2 19q0 14 -4 18q-1 0 -1 1t-1 1q48 13 48 40q0 25 -25 35q1 0 3 2.5t5 4.5v4
q-5 0 -24 -6q-14 2 -24 3.5t-16 1.5q-32 0 -52.5 -8t-32.5 -19t-18 -22.5t-7 -19.5q0 -23 25 -24q15 0 27 3.5t15 7.5q10 10 18 29v31q-4 0 -5 -3.5t-3 -5.5q-8 -23 -18.5 -38t-32.5 -17q-16 1 -16 19q1 7 7.5 16.5t19 18.5t30 15.5t40.5 6.5l11 -1t16 -1q-9 -7 -16 -14
t-13.5 -15.5t-13.5 -19.5t-16 -26q-13 -26 -27.5 -47t-32.5 -21q-22 0 -25 15q23 0 23 15q0 14 -15 14q-20 0 -20 -20q0 -14 11 -23.5t30 -9.5q37 0 58.5 24t35.5 64q20 53 40 60q12 -5 12 -19q0 -12 -10.5 -27t-19.5 -20q-8 6 -13 6q-3 0 -7 -4z" />
    <glyph glyph-name="tilde" unicode="&#x2dc;" horiz-adv-x="364" 
d="M83 454q13 -43 46.5 -67.5t75.5 -24.5q21 0 33 4q42 12 67 45.5t25 75.5q0 19 -5 36q-11 40 -45.5 65.5t-76.5 25.5q-20 0 -33 -4q-42 -12 -67 -46t-25 -76q0 -14 5 -34zM186 557q8 2 19 2q24 0 44 -14t26 -38q2 -8 2 -18q0 -25 -14.5 -45t-37.5 -25q-9 -3 -20 -3
q-23 0 -43 14.5t-26 37.5q-2 8 -2 19q0 23 13.5 43.5t38.5 26.5z" />
    <glyph glyph-name="trademark" unicode="&#x2122;" horiz-adv-x="446" 
d="M177 323h-132v-48h132v-117h49v117h139l2 48h-141v112h-49v-112zM45 91h320v46h-320v-46z" />
    <glyph glyph-name="scaron" unicode="&#x161;" horiz-adv-x="282" 
d="M241 473h43v27h-105q-36 0 -68 -12t-57 -33t-39.5 -50t-14.5 -63q0 -32 13.5 -59.5t35.5 -48.5t49.5 -33t55.5 -12l-1 -304h27l-1 588h34l1 -588h27v588z" />
    <glyph glyph-name="guilsinglright" unicode="&#x203a;" horiz-adv-x="332" 
d="M59 205h-12q11 -25 27.5 -51t38.5 -52q-17 -25 -34.5 -50.5t-29.5 -49.5l10 -2q40 57 109 102q-62 44 -109 103zM164 199h-14q34 -61 71 -101q-39 -45 -65 -100h10q45 61 109 100q-61 40 -111 101z" />
    <glyph glyph-name="oe" unicode="&#x153;" horiz-adv-x="480" 
d="M132 174l-53 -169l150 98l148 -98l-52 171l139 106h-175l-64 174l-58 -176h-172zM65 258h120l42 132l46 -129h129l-103 -75l37 -126l-107 72l-112 -77l40 127z" />
    <glyph glyph-name="FL0157" horiz-adv-x="480" 
d="M132 174l-53 -169l150 98l148 -98l-52 171l139 106h-175l-64 174l-58 -176h-172z" />
    <glyph glyph-name="FL0158" horiz-adv-x="590" 
d="M521 47v378l-521 -186z" />
    <glyph glyph-name="Ydieresis" unicode="&#x178;" horiz-adv-x="557" 
d="M21 0h478v473h-478v-473z" />
    <glyph glyph-name="FL0160" horiz-adv-x="446" 
d="M40 215h320v48h-320v-48zM164 140q0 -15 12 -27t27 -12q17 0 28 12t11 27q0 17 -11 28t-28 11q-15 0 -27 -11t-12 -28zM161 340q0 -16 12 -27.5t27 -11.5q16 0 27.5 11t11.5 28t-11.5 28t-27.5 11q-15 0 -27 -11.5t-12 -27.5z" />
    <glyph glyph-name="exclamdown" unicode="&#xa1;" horiz-adv-x="573" 
d="M421 111q7 0 9 3q4 9 4 45l-47 125q-5 12 -10.5 18.5t-16.5 18.5q-6 6 -9 9.5t-4.5 6.5t-1.5 6v11q0 9 2 17q36 -4 41 -27q29 -10 86 -10q14 0 24.5 0.5t17.5 1.5q-5 44 -16 61q-12 19 -51 30q-39 12 -89.5 18t-98.5 6q-25 0 -51 -1.5t-55 -5.5q-55 -6 -94 -20
q-33 -12 -44 -30q-9 -16 -12 -58q5 -1 14.5 -1.5t23.5 -0.5q60 0 90 10q1 22 40 27q1 -6 1.5 -10t0.5 -6q0 -16 -2 -20q-1 -2 -17 -18q-12 -12 -16 -20.5t-9 -19.5l-46 -118q0 -9 1.5 -26t4.5 -20q2 -2 10 -2h320zM482 300q17 0 23.5 4.5t13.5 19.5l-46 -3l-80 5
q2 -9 8 -13.5t13.5 -6.5t15.5 -2.5t15 -1.5zM1 324q8 -16 13.5 -19t23.5 -3h37q11 1 17 1t14 2q19 5 20 21l-79 -5zM187 373q34 8 73 8t74 -8l-15 -29l-58 1l-56 -1h-5zM336 244q0 -33 -22 -56t-54 -23t-53.5 23.5t-21.5 56.5q0 31 23 53t54 22t52.5 -22.5t21.5 -53.5z" />
    <glyph glyph-name="cent" unicode="&#xa2;" horiz-adv-x="519" 
d="M405 17q-171 7 -171 195q17 -38 47.5 -62.5t68.5 -24.5q20 0 38 8t31.5 22t21.5 32.5t8 38.5q0 24 -9 46t-23 39q-13 17 -28 32t-38 37q-19 17 -31.5 29t-19.5 20q-14 16 -29 35q-14 21 -25.5 45t-18.5 53q-9 -58 -45 -105t-90 -92q-40 -31 -63.5 -64.5t-23.5 -75.5
q0 -41 31 -71q32 -29 71 -29t71 25t47 62q0 -94 -44 -144.5t-131 -50.5l-4 -17h363z" />
    <glyph glyph-name="sterling" unicode="&#xa3;" horiz-adv-x="438" 
d="M377 521h-377l186 -521z" />
    <glyph glyph-name="currency" unicode="&#xa4;" horiz-adv-x="438" 
d="M0 2h377l-186 521z" />
    <glyph glyph-name="yen" unicode="&#xa5;" horiz-adv-x="525" 
d="M164 170l-64 -95h60l64 95l239 -1v71h-189l36 50l153 -1v71h-105l72 100h-65l-69 -100h-226v-71l176 1l-36 -50h-140v-71z" />
    <glyph glyph-name="brokenbar" unicode="&#xa6;" horiz-adv-x="750" 
d="M125 0h500v625h-500v-625zM609 16h-468v593h468v-593z" />
    <glyph glyph-name="section" unicode="&#xa7;" 
 />
    <glyph glyph-name="dieresis" unicode="&#xa8;" 
 />
  </font>
</defs>
</svg>
